<svg fill="none" height="16" viewBox="0 0 16 16" width="16" xmlns="http://www.w3.org/2000/svg">
  <path clip-rule="evenodd"
        d="M10.6608 0.23771C10.3439 -0.0792368 9.83002 -0.0792368 9.51307 0.23771C9.23379 0.516995 9.2006 0.949185 9.41351 1.26481L6.391 4.28731L2.84547 5.61689C2.73699 5.65757 2.63847 5.72101 2.55655 5.80293L1.16525 7.19423C0.848299 7.51118 0.848299 8.02505 1.16525 8.342L3.83774 11.0145L0.23771 14.6145C-0.0792368 14.9315 -0.0792368 15.4453 0.23771 15.7623C0.554658 16.0792 1.06853 16.0792 1.38548 15.7623L4.98551 12.1623L7.658 14.8348C7.97495 15.1517 8.48882 15.1517 8.80577 14.8348L10.1971 13.4434C10.279 13.3615 10.3424 13.263 10.3831 13.1545L11.7127 9.60899L14.7352 6.58649C15.0508 6.7994 15.483 6.76621 15.7623 6.48693C16.0792 6.16998 16.0792 5.65611 15.7623 5.33916L15.2985 4.87539L11.1246 0.701478L10.6608 0.23771ZM10.5507 2.42313L7.41446 5.55939C7.33254 5.64131 7.23403 5.70475 7.12555 5.74543L3.58001 7.075L2.8869 7.76812L5.55939 10.4406L8.23188 13.1131L8.925 12.42L10.2546 8.87445C10.2953 8.76597 10.3587 8.66746 10.4406 8.58554L13.5769 5.44928L10.5507 2.42313Z"
        fill="#9E9E9E"
        fill-rule="evenodd" />
</svg>
