<svg fill="none" height="24" viewBox="0 0 24 24" width="24" xmlns="http://www.w3.org/2000/svg">
  <path clip-rule="evenodd"
        d="M10.8396 1.5C10.5075 1.5 10.2215 1.73398 10.1556 2.05945L9.69315 4.34439C9.15267 4.50464 8.63643 4.72075 8.15108 4.98563L6.23041 3.71166C5.9537 3.52811 5.58597 3.56495 5.35117 3.79975L3.75492 5.39601C3.52011 5.63082 3.48327 5.99856 3.66684 6.27528L4.94724 8.20542C4.68271 8.69601 4.46807 9.21767 4.31022 9.76358L2.05947 10.219C1.73399 10.2849 1.5 10.571 1.5 10.9031V13.1604C1.5 13.4925 1.73397 13.7785 2.05944 13.8444L4.3439 14.3068C4.50763 14.8432 4.72635 15.3555 4.99359 15.8371L3.71167 17.7696C3.52811 18.0463 3.56495 18.414 3.79975 18.6488L5.39601 20.2451C5.63081 20.4799 5.99853 20.5167 6.27525 20.3332L8.24822 19.0245C8.72281 19.275 9.22589 19.479 9.75144 19.6304L10.219 21.9406C10.2849 22.266 10.571 22.5 10.9031 22.5H13.1604C13.4924 22.5 13.7785 22.266 13.8444 21.9406L14.3214 19.5844C14.8308 19.4263 15.3181 19.2186 15.7776 18.967L17.7698 20.2883C18.0465 20.4719 18.4142 20.435 18.649 20.2002L20.2453 18.604C20.4801 18.3692 20.5169 18.0014 20.3334 17.7247L18.9958 15.7084C19.2396 15.2493 19.4397 14.7635 19.5908 14.2565L21.9405 13.781C22.266 13.7151 22.5 13.429 22.5 13.0969V10.8396C22.5 10.5075 22.266 10.2215 21.9406 10.1556L19.5838 9.67855C19.4293 9.16547 19.2244 8.67417 18.9749 8.21056L20.2883 6.23041C20.4719 5.95369 20.435 5.58597 20.2002 5.35117L18.604 3.75492C18.3692 3.52012 18.0015 3.48327 17.7247 3.66683L15.7508 4.97616C15.2759 4.7185 14.7717 4.50777 14.2445 4.35007L13.781 2.05946C13.7151 1.73399 13.429 1.5 13.0969 1.5H10.8396ZM10.9753 5.04581L11.4104 2.89577H12.5261L12.9621 5.05024C13.0161 5.31684 13.22 5.5278 13.4847 5.59075C14.1744 5.75483 14.822 6.02759 15.4086 6.39053C15.6403 6.53395 15.9344 6.52931 16.1615 6.37864L18.0206 5.14548L18.8097 5.93454L17.5733 7.7985C17.4232 8.02492 17.418 8.31791 17.5602 8.54944C17.9146 9.12667 18.1819 9.76299 18.3445 10.44C18.4078 10.704 18.6185 10.9072 18.8846 10.9611L21.1042 11.4104V12.5261L18.8901 12.9742C18.6233 13.0282 18.4122 13.2324 18.3495 13.4974C18.1903 14.1693 17.9284 14.8011 17.5804 15.3755C17.4404 15.6066 17.4464 15.8977 17.5958 16.1229L18.8547 18.0206L18.0657 18.8097L16.1867 17.5634C15.9587 17.4122 15.6634 17.4081 15.4313 17.553C14.8582 17.9109 14.2262 18.1827 13.5534 18.3503C13.292 18.4154 13.0915 18.6251 13.0381 18.889L12.5896 21.1042H11.4738L11.0328 18.9252C10.9783 18.6559 10.7708 18.4436 10.5028 18.383C9.81423 18.2272 9.16665 17.9629 8.57841 17.6088C8.34754 17.4698 8.05731 17.4762 7.83276 17.6252L5.97937 18.8545L5.19032 18.0655L6.39872 16.2438C6.55083 16.0145 6.554 15.7173 6.40683 15.4848C6.03302 14.8942 5.75128 14.2401 5.5809 13.5424C5.51673 13.2796 5.3065 13.0776 5.04138 13.0239L2.89577 12.5896V11.4739L5.01491 11.045C5.28397 10.9906 5.49612 10.7835 5.557 10.5158C5.7178 9.80882 5.99282 9.14519 6.36193 8.54498C6.50435 8.31339 6.49931 8.02017 6.34902 7.79361L5.14549 5.97935L5.93454 5.19031L7.7414 6.3888C7.96906 6.53981 8.2639 6.54409 8.49586 6.39976C9.09112 6.02937 9.74944 5.75152 10.4508 5.58677C10.7163 5.5244 10.9212 5.31311 10.9753 5.04581ZM8.48068 11.9894C8.48068 10.0389 10.0619 8.45773 12.0124 8.45773C13.9629 8.45773 15.5441 10.0389 15.5441 11.9894C15.5441 13.94 13.9629 15.5212 12.0124 15.5212C10.0619 15.5212 8.48068 13.94 8.48068 11.9894ZM12.0124 7.06195C9.29102 7.06195 7.08491 9.26807 7.08491 11.9894C7.08491 14.7108 9.29102 16.9169 12.0124 16.9169C14.7338 16.9169 16.9399 14.7108 16.9399 11.9894C16.9399 9.26807 14.7338 7.06195 12.0124 7.06195Z"
        fill="#FFF"
        fill-rule="evenodd" />
</svg>
