<svg fill="none" height="24" viewBox="0 0 24 24" width="24" xmlns="http://www.w3.org/2000/svg">
  <path clip-rule="evenodd"
        d="M14.8783 7.26988C14.8783 8.76037 13.67 9.96864 12.1796 9.96864C10.6891 9.96864 9.4808 8.76037 9.4808 7.26988C9.4808 5.7794 10.6891 4.57113 12.1796 4.57113C13.67 4.57113 14.8783 5.7794 14.8783 7.26988ZM16.4494 7.26988C16.4494 9.62808 14.5377 11.5398 12.1796 11.5398C9.82136 11.5398 7.90967 9.62808 7.90967 7.26988C7.90967 4.91169 9.82136 3 12.1796 3C14.5377 3 16.4494 4.91169 16.4494 7.26988ZM20.9888 19.9551C21.0741 20.5266 20.6605 21 20.1598 21C19.6591 21 19.2624 20.5248 19.1564 19.958C19.0663 19.4763 18.9138 19.004 18.701 18.5508C18.3365 17.7743 17.8023 17.0688 17.1288 16.4745C16.4552 15.8802 15.6557 15.4088 14.7757 15.0872C13.8957 14.7655 12.9525 14.6 12 14.6C11.0475 14.6 10.1043 14.7655 9.22434 15.0872C8.34434 15.4088 7.54476 15.8802 6.87124 16.4745C6.19772 17.0688 5.66346 17.7743 5.29896 18.5508C5.0862 19.004 4.93371 19.4763 4.84362 19.958C4.73763 20.5248 4.34092 21 3.8402 21C3.33947 21 2.9259 20.5266 3.01121 19.9551C3.11444 19.2637 3.31993 18.5856 3.6237 17.9385C4.07933 16.9679 4.74716 16.086 5.58905 15.3431C6.43095 14.6003 7.43043 14.011 8.53042 13.609C9.63041 13.2069 10.8094 13 12 13C13.1906 13 14.3696 13.2069 15.4696 13.609C16.5696 14.011 17.569 14.6003 18.4109 15.3431C19.2528 16.086 19.9207 16.9679 20.3763 17.9385C20.6801 18.5856 20.8856 19.2637 20.9888 19.9551Z"
        fill="#FFF"
        fill-rule="evenodd" />
</svg>
