<svg fill="none" height="41" viewBox="0 0 40 41" width="40" xmlns="http://www.w3.org/2000/svg">
  <rect fill="#F5F5F5" height="40" rx="20" width="40" y="0.6875" />
  <path clip-rule="evenodd" d="M12.2959 18.669C12.2959 14.9805 15.2706 11.9919 18.9418 11.9919C22.613 11.9919 25.5877 14.9805 25.5877 18.669C25.5877 20.4634 24.8848 22.0923 23.7379 23.2927L23.7374 23.2932C23.7361 23.2946 23.7347 23.296 23.7334 23.2974C23.7181 23.3108 23.7032 23.3248 23.6886 23.3395C23.6698 23.3584 23.6519 23.378 23.6351 23.3982C22.4336 24.6039 20.776 25.3461 18.9418 25.3461C15.2706 25.3461 12.2959 22.3575 12.2959 18.669ZM24.2965 25.2237C22.8404 26.4264 20.9745 27.147 18.9418 27.147C14.2806 27.147 10.5034 23.3521 10.5034 18.669C10.5034 13.9858 14.2806 10.1909 18.9418 10.1909C23.603 10.1909 27.3802 13.9858 27.3802 18.669C27.3802 20.6592 26.697 22.4923 25.5532 23.9394L31.2341 29.6469C31.5841 29.9986 31.5841 30.5687 31.2341 30.9204C30.8841 31.2721 30.3166 31.2721 29.9666 30.9204L24.2965 25.2237Z"
        fill="black"
        fill-rule="evenodd" />
</svg>
