<svg fill="none" height="24" viewBox="0 0 24 24" width="24" xmlns="http://www.w3.org/2000/svg">
  <path clip-rule="evenodd"
        d="M10.2179 0.902821C10.2179 0.404207 9.7955 0 9.27451 0C8.75352 0 8.33117 0.404207 8.33117 0.902821V4.85488L7.11153 3.68763C6.74313 3.33506 6.14584 3.33506 5.77745 3.68763C5.40905 4.0402 5.40905 4.61184 5.77745 4.96441L8.02047 7.11109C8.71306 7.77393 9.83596 7.77393 10.5285 7.11109L12.7716 4.96441C13.14 4.61184 13.14 4.0402 12.7716 3.68763C12.4032 3.33506 11.8059 3.33506 11.4375 3.68763L10.2179 4.85488V0.902821ZM3.77458 8.98458C2.59444 8.98458 1.74349 10.0671 2.07057 11.1523L4.70467 18.8007C4.92367 19.5273 5.61852 20.0276 6.40867 20.0276H11.3857C12.1758 20.0276 12.8707 19.5273 13.0897 18.8007L15.7238 11.1523C16.0509 10.0671 15.1999 8.98458 14.0198 8.98458H3.77458ZM6.49383 18.222L3.92505 10.7902H13.8693L11.3005 18.222H6.49383ZM17.1986 12.957C16.6776 12.957 16.2552 13.3612 16.2552 13.8598C16.2552 14.3584 16.6776 14.7626 17.1986 14.7626H20.072L17.332 22.1944H12.8977L12.6976 21.62C12.5328 21.1469 11.9986 20.8913 11.5044 21.049C11.0101 21.2066 10.743 21.7179 10.9077 22.191L11.1336 22.8394C11.375 23.5325 12.0527 24 12.8161 24H17.4156C18.1942 24 18.8817 23.514 19.1107 22.8018L21.9204 15.1534C22.2713 14.062 21.4185 12.957 20.2253 12.957H17.1986Z"
        fill="#9E9E9E"
        fill-rule="evenodd" />
</svg>
