<svg fill="none" height="41" viewBox="0 0 40 41" width="40" xmlns="http://www.w3.org/2000/svg">
  <rect fill="#F5F5F5" height="40" rx="20" width="40" y="0.6875" />
  <path clip-rule="evenodd" d="M19.2961 19.7567C19.3969 19.7173 19.4907 19.6536 19.57 19.564C19.6959 19.4219 19.8136 19.2732 19.9228 19.1187C20.0334 19.201 20.105 19.3327 20.105 19.4811C20.105 19.7304 19.9029 19.9325 19.6536 19.9325C19.5081 19.9325 19.3786 19.8636 19.2961 19.7567ZM20.6159 17.7404C20.6909 17.5116 20.7502 17.2767 20.793 17.0372C20.8136 16.9216 20.8302 16.8056 20.8429 16.6895L21.5433 16.6628L27.2574 21.703L22.5223 27.0713L16.8163 22.0382L16.4916 16.8558L19.0473 16.7581C18.9827 17.1011 18.8666 17.4294 18.7049 17.7329C18.0854 18.0697 17.665 18.7263 17.665 19.4811C17.665 20.5794 18.5553 21.4697 19.6536 21.4697C20.7519 21.4697 21.6422 20.5794 21.6422 19.4811C21.6422 18.7319 21.2279 18.0794 20.6159 17.7404ZM18.9846 15.2222L15.6459 15.3498C15.4389 15.3577 15.2439 15.4488 15.105 15.6024C14.9662 15.756 14.8952 15.9592 14.9081 16.1659L15.1168 19.4956C14.6594 19.418 14.219 19.2475 13.8241 18.9904C13.1304 18.5389 12.6242 17.851 12.3994 17.0544C12.1745 16.2579 12.2464 15.4069 12.6016 14.6593C12.9568 13.9117 13.5712 13.3185 14.3307 12.9896C15.0902 12.6608 15.9433 12.6188 16.7315 12.8713C17.5197 13.1239 18.1894 13.6539 18.6164 14.3629C18.7791 14.6332 18.9024 14.9225 18.9846 15.2222ZM20.7816 15.1535C20.6677 14.5568 20.4489 13.98 20.1304 13.4512C19.4827 12.3755 18.4666 11.5714 17.2708 11.1882C16.075 10.8051 14.7808 10.8688 13.6285 11.3677C12.4762 11.8666 11.5441 12.7666 11.0052 13.9008C10.4663 15.0349 10.3573 16.3261 10.6984 17.5346C11.0395 18.743 11.8075 19.7866 12.8599 20.4716C13.5758 20.9376 14.3903 21.2161 15.2292 21.2908L15.302 22.4521C15.3148 22.6556 15.4078 22.8456 15.5607 22.9805L22.0777 28.7289L22.0818 28.7326L22.0859 28.7362L24.4676 30.8369C24.7859 31.1177 25.2716 31.0873 25.5524 30.7689L31.3044 24.2478C31.5852 23.9295 31.5548 23.4438 31.2365 23.163L28.8507 21.0586L22.3296 15.3066C22.1816 15.176 21.989 15.1074 21.7918 15.1149L20.7816 15.1535ZM23.6751 28.0881L28.4103 22.7199L29.6432 23.8074L24.908 29.1756L23.6751 28.0881Z"
        fill="black"
        fill-rule="evenodd" />
</svg>
