<svg fill="none" height="20" viewBox="0 0 20 20" width="20" xmlns="http://www.w3.org/2000/svg">
  <path d="M0.867977 0C0.389416 0 0.00146484 0.387954 0.00146484 0.866519V7.97198C0.00146484 8.45054 0.389416 8.83849 0.867977 8.83849H7.97338C8.45194 8.83849 8.83989 8.45054 8.83989 7.97198V0.866519C8.83989 0.387954 8.45194 0 7.97338 0H0.867977ZM1.73449 7.10546V1.73304H7.10687V7.10546H1.73449Z"
        fill="#FFF" />
  <path d="M12.0281 0C11.5495 0 11.1616 0.387954 11.1616 0.866519V7.97198C11.1616 8.45054 11.5495 8.83849 12.0281 8.83849H19.1335C19.612 8.83849 20 8.45054 20 7.97198V0.866519C20 0.387954 19.612 0 19.1335 0H12.0281ZM12.8946 7.10546V1.73304H18.267V7.10546H12.8946Z"
        fill="#FFF" />
  <path d="M11.1616 12.028C11.1616 11.5495 11.5495 11.1615 12.0281 11.1615H19.1335C19.612 11.1615 20 11.5495 20 12.028V19.1335C20 19.612 19.612 20 19.1335 20H12.0281C11.5495 20 11.1616 19.612 11.1616 19.1335V12.028ZM12.8946 12.8945V18.267H18.267V12.8945H12.8946Z"
        fill="#FFF" />
  <path d="M0.866512 11.1615C0.387951 11.1615 0 11.5495 0 12.028V19.1335C0 19.612 0.387951 20 0.866512 20H7.97191C8.45048 20 8.83843 19.612 8.83843 19.1335V12.028C8.83843 11.5495 8.45048 11.1615 7.97191 11.1615H0.866512ZM1.73302 18.267V12.8945H7.1054V18.267H1.73302Z"
        fill="#FFF" />
</svg>
