<svg fill="none" height="24" viewBox="0 0 24 24" width="24" xmlns="http://www.w3.org/2000/svg">
  <path clip-rule="evenodd"
        d="M8.30256 9.27572C8.40252 9.25637 8.50576 9.24623 8.61137 9.24623H11.6153C12.8602 9.24623 13.8693 10.2554 13.8693 11.5002V14.762C13.8693 16.0069 12.8602 17.016 11.6153 17.016H4.25401C3.9209 17.016 3.65086 17.286 3.65086 17.6192V19.9411C3.65086 20.2742 3.9209 20.5442 4.25401 20.5442H17.4296C17.7627 20.5442 18.0327 20.2742 18.0327 19.9411V6.40114C18.0327 6.06803 17.7627 5.79799 17.4296 5.79799H3.72527C3.68418 5.79799 3.65086 5.83131 3.65086 5.8724V10.2228C3.65086 10.5559 3.9209 10.8259 4.25401 10.8259H6.99647C6.99894 10.7116 7.01329 10.6002 7.03834 10.4929C7.1821 9.87701 7.67821 9.39659 8.30256 9.27572ZM6.22173 9.63366C6.84592 9.52359 7.34224 9.04279 7.47517 8.4268C7.49819 8.32012 7.51032 8.20939 7.51032 8.09582C7.51032 7.59811 7.27749 7.15479 6.9148 6.86883C6.649 6.65925 6.31345 6.53419 5.94869 6.53419C5.58393 6.53419 5.24838 6.65925 4.98258 6.86883C4.8857 6.94521 4.79808 7.03283 4.7217 7.12971C4.51212 7.39551 4.38706 7.73106 4.38706 8.09582C4.38706 8.46058 4.51212 8.79613 4.7217 9.06193C5.00766 9.42462 5.45098 9.65745 5.94869 9.65745C6.04183 9.65745 6.13307 9.64929 6.22173 9.63366ZM19.5755 5.70959C19.2836 4.80305 18.4332 4.14713 17.4296 4.14713H16.9247V2.63012C16.9247 2.17425 16.5552 1.80469 16.0993 1.80469C15.6434 1.80469 15.2738 2.17425 15.2738 2.63012V4.14713H7.55494V2.63012C7.55494 2.17425 7.18538 1.80469 6.7295 1.80469C6.27363 1.80469 5.90407 2.17425 5.90407 2.63012V4.14713H3.72527C2.77243 4.14713 2 4.91956 2 5.8724V10.2228C2 11.4677 3.00916 12.4768 4.25401 12.4768H7.03165C7.91187 12.4768 8.62764 11.7728 8.64656 10.8971H11.6153C11.9484 10.8971 12.2185 11.1671 12.2185 11.5002V14.762C12.2185 15.0951 11.9484 15.3651 11.6153 15.3651H4.25401C3.00915 15.3651 2 16.3743 2 17.6192V19.9411C2 21.1859 3.00916 22.1951 4.25401 22.1951H17.4296C18.6744 22.1951 19.6836 21.1859 19.6836 19.9411V12.8253H20.3906C21.2794 12.8253 22 12.1048 22 11.2159V7.31817C22 6.42932 21.2794 5.70876 20.3906 5.70876H19.6129C19.6004 5.70876 19.5879 5.70904 19.5755 5.70959ZM20.3491 11.1745V7.35962H19.6836V11.1745H20.3491ZM5.94869 8.58662C6.21975 8.58662 6.43949 8.36688 6.43949 8.09582C6.43949 7.82476 6.21975 7.60502 5.94869 7.60502C5.67763 7.60502 5.45789 7.82476 5.45789 8.09582C5.45789 8.36688 5.67763 8.58662 5.94869 8.58662Z"
        fill="#FFFFFF"
        fill-rule="evenodd" />
</svg>
