<svg fill="none" height="41" viewBox="0 0 40 41" width="40" xmlns="http://www.w3.org/2000/svg">
  <rect fill="#F5F5F5" height="40" rx="20" width="40" y="0.6875" />
  <path d="M12.6279 27.8311L16.6198 27.1547L16.8425 22.9417" stroke="black" stroke-linecap="round" stroke-linejoin="round"
        stroke-width="1.81" />
  <mask fill="white" id="path-3-inside-1_7134_18946">
    <path d="M22.2301 13.3005C22.3091 12.8694 22.021 12.4527 21.5811 12.4166C19.9858 12.2857 18.3795 12.6154 16.9594 13.3745C15.3038 14.2596 13.9994 15.676 13.2599 17.3918C12.5204 19.1075 12.3898 21.0209 12.8892 22.8185C13.3176 24.3603 14.1878 25.7386 15.3862 26.7905C15.7166 27.0806 16.2196 26.9988 16.4791 26.6442C16.7387 26.2896 16.6558 25.7968 16.3321 25.4992C15.4235 24.6639 14.7625 23.5904 14.4304 22.3951C14.0272 20.9439 14.1327 19.3992 14.7297 18.0141C15.3267 16.629 16.3797 15.4855 17.7163 14.7709C18.8172 14.1824 20.0567 13.9136 21.2938 13.9868C21.7345 14.0128 22.151 13.7316 22.2301 13.3005Z" />
  </mask>
  <path d="M22.2301 13.3005C22.3091 12.8694 22.021 12.4527 21.5811 12.4166C19.9858 12.2857 18.3795 12.6154 16.9594 13.3745C15.3038 14.2596 13.9994 15.676 13.2599 17.3918C12.5204 19.1075 12.3898 21.0209 12.8892 22.8185C13.3176 24.3603 14.1878 25.7386 15.3862 26.7905C15.7166 27.0806 16.2196 26.9988 16.4791 26.6442C16.7387 26.2896 16.6558 25.7968 16.3321 25.4992C15.4235 24.6639 14.7625 23.5904 14.4304 22.3951C14.0272 20.9439 14.1327 19.3992 14.7297 18.0141C15.3267 16.629 16.3797 15.4855 17.7163 14.7709C18.8172 14.1824 20.0567 13.9136 21.2938 13.9868C21.7345 14.0128 22.151 13.7316 22.2301 13.3005Z"
        fill="black" mask="url(#path-3-inside-1_7134_18946)" stroke="black" stroke-linejoin="round"
        stroke-width="1.61381" />
  <path d="M29.3726 13.5444L25.3807 14.2208L25.158 18.4338" stroke="black" stroke-linecap="round" stroke-linejoin="round"
        stroke-width="1.81" />
  <mask fill="white" id="path-5-inside-2_7134_18946">
    <path d="M19.7726 28.063C19.6923 28.5007 19.9849 28.9239 20.4317 28.9599C22.0229 29.0881 23.6246 28.7582 25.0411 28.001C26.6967 27.1159 28.0011 25.6995 28.7406 23.9837C29.48 22.268 29.6107 20.3546 29.1113 18.557C28.684 17.0191 27.8171 15.644 26.6235 14.5931C26.2884 14.298 25.7777 14.3811 25.5141 14.7412C25.2505 15.1013 25.3349 15.6016 25.6628 15.9045C26.5623 16.7353 27.2168 17.8009 27.5463 18.9869C27.9481 20.4328 27.8429 21.9718 27.2482 23.3518C26.6534 24.7318 25.6042 25.8711 24.2725 26.583C23.1802 27.167 21.9509 27.435 20.7234 27.3652C20.2759 27.3398 19.8529 27.6252 19.7726 28.063Z" />
  </mask>
  <path d="M19.7726 28.063C19.6923 28.5007 19.9849 28.9239 20.4317 28.9599C22.0229 29.0881 23.6246 28.7582 25.0411 28.001C26.6967 27.1159 28.0011 25.6995 28.7406 23.9837C29.48 22.268 29.6107 20.3546 29.1113 18.557C28.684 17.0191 27.8171 15.644 26.6235 14.5931C26.2884 14.298 25.7777 14.3811 25.5141 14.7412C25.2505 15.1013 25.3349 15.6016 25.6628 15.9045C26.5623 16.7353 27.2168 17.8009 27.5463 18.9869C27.9481 20.4328 27.8429 21.9718 27.2482 23.3518C26.6534 24.7318 25.6042 25.8711 24.2725 26.583C23.1802 27.167 21.9509 27.435 20.7234 27.3652C20.2759 27.3398 19.8529 27.6252 19.7726 28.063Z"
        fill="black" mask="url(#path-5-inside-2_7134_18946)" stroke="black" stroke-linejoin="round"
        stroke-width="1.61381" />
</svg>
