<svg fill="none" height="120" viewBox="0 0 120 120" width="120" xmlns="http://www.w3.org/2000/svg">
  <path d="M59.5103 26.7234C62.4283 26.6974 65.2351 25.5998 67.3966 23.6394C69.5582 21.679 70.9238 18.9924 71.2337 16.0908C71.2215 15.8072 71.104 15.5383 70.9042 15.3366C70.7044 15.135 70.4366 15.0149 70.1532 15C69.8557 15.0005 69.5609 15.0567 69.2841 15.1657C66.136 16.2054 62.8353 16.7076 59.5205 16.6515C56.2054 16.7109 52.9042 16.2085 49.7569 15.1657C49.4447 15.0568 49.1165 15.0008 48.7859 15C48.6476 15.0055 48.5118 15.0385 48.3864 15.0971C48.2611 15.1557 48.1486 15.2386 48.0556 15.3411C47.9626 15.4436 47.8909 15.5635 47.8448 15.694C47.7987 15.8245 47.779 15.9628 47.7869 16.101C48.105 18.9984 49.4734 21.679 51.6335 23.6362C53.7935 25.5934 56.5956 26.6916 59.5103 26.7234Z"
        fill="#424242" />
  <path d="M101.56 25.6145L77.858 17.3164C77.7566 17.2811 77.6486 17.2686 77.5419 17.2796C77.4351 17.2906 77.332 17.3249 77.2399 17.38C77.1478 17.4352 77.0689 17.5099 77.0088 17.5988C76.9487 17.6878 76.9088 17.7889 76.8921 17.8949C76.2054 22.0028 74.0843 25.7341 70.9058 28.4254C67.7272 31.1167 63.6973 32.5937 59.5324 32.5937C55.3676 32.5937 51.3376 31.1167 48.1591 28.4254C44.9806 25.7341 42.8595 22.0028 42.1728 17.8949C42.1565 17.787 42.1164 17.6841 42.0553 17.5937C41.9943 17.5033 41.9138 17.4276 41.8198 17.3722C41.7259 17.3168 41.6207 17.283 41.512 17.2734C41.4034 17.2637 41.2939 17.2784 41.1916 17.3164L17.4899 25.6145C16.8276 25.8468 16.2706 26.3088 15.9199 26.9167C15.5692 27.5246 15.448 28.2381 15.5784 28.9277L18.6367 45.0602C18.7539 45.6746 19.0644 46.2355 19.5228 46.661C19.9813 47.0865 20.5638 47.3543 21.1853 47.4252L30.1461 48.4447C30.5121 48.4855 30.8493 48.6626 31.0906 48.9407C31.3319 49.2189 31.4596 49.5777 31.4484 49.9458L30.0951 94.11C30.0773 94.6795 30.2256 95.2418 30.522 95.7283C30.8185 96.2148 31.2502 96.6045 31.7644 96.8497C32.1919 97.0424 32.6565 97.139 33.1254 97.1326H85.9217C86.3905 97.1389 86.8551 97.0424 87.2826 96.8497C87.7964 96.6041 88.2275 96.2143 88.5235 95.7278C88.8195 95.2413 88.9675 94.6792 88.9494 94.11L87.6063 49.9458C87.595 49.5777 87.7228 49.2189 87.9641 48.9407C88.2054 48.6626 88.5426 48.4855 88.9086 48.4447L97.8694 47.4252C98.4908 47.3543 99.0733 47.0865 99.5318 46.661C99.9903 46.2355 100.301 45.6746 100.418 45.0602L103.476 28.9277C103.607 28.2381 103.486 27.5246 103.135 26.9167C102.784 26.3088 102.227 25.8468 101.565 25.6145H101.56Z"
        fill="#FFA440" />
  <path clip-rule="evenodd"
        d="M16.9934 23.2061L34.4934 16.7061L34.5631 16.8935L17.0664 23.3923C16.1655 23.8026 14.9095 24.7144 14.0767 26.1135C13.2452 27.5102 12.8326 29.3967 13.6231 31.7682L13.6246 31.7727L18.1262 47.7806L18.1271 47.7888C18.1444 47.9442 18.2284 48.0866 18.3861 48.2194C18.545 48.3533 18.7744 48.4734 19.0697 48.5808C19.6601 48.7955 20.4894 48.9507 21.4777 49.0756C22.5979 49.2171 23.907 49.3181 25.2872 49.4246C26.3465 49.5063 27.4477 49.5913 28.5377 49.7003L28.5476 49.7013L28.5571 49.7042C28.873 49.8014 29.1027 50.0962 29.2713 50.5522C29.4409 51.0107 29.5576 51.6553 29.632 52.4941C29.7811 54.1729 29.7631 56.6578 29.6402 60.0534C29.5326 63.0249 29.3443 66.7021 29.1162 71.1556C28.8233 76.875 28.4648 83.8746 28.1277 92.3038L27.9278 92.2958C28.2653 83.8583 28.6237 76.8625 28.9164 71.1466C29.1444 66.6959 29.3326 63.0212 29.4403 60.0462C29.5632 56.6501 29.5806 54.1767 29.4328 52.5118C29.3589 51.6787 29.244 51.055 29.0837 50.6216C28.9247 50.1916 28.7295 49.9709 28.5074 49.8983C27.4323 49.7909 26.3375 49.7064 25.2813 49.6248C23.8945 49.5177 22.5742 49.4157 21.4526 49.274C20.4618 49.1488 19.6139 48.9916 19.0013 48.7688C18.695 48.6574 18.4413 48.5275 18.2572 48.3724C18.0741 48.2181 17.9558 48.0352 17.9293 47.8193L13.4326 31.8292C12.6241 29.4017 13.0449 27.4557 13.9048 26.0111C14.7627 24.5701 16.0546 23.6325 16.9869 23.2088L16.9934 23.2061Z"
        fill="black"
        fill-rule="evenodd" />
  <path clip-rule="evenodd"
        d="M102.063 23.2061L84.5632 16.7061L84.4936 16.8935L101.99 23.3923C102.891 23.8026 104.147 24.7144 104.98 26.1135C105.811 27.5102 106.224 29.3967 105.434 31.7682L105.432 31.7727L100.93 47.7806L100.93 47.7888C100.912 47.9442 100.828 48.0866 100.671 48.2194C100.512 48.3533 100.282 48.4734 99.987 48.5808C99.3965 48.7955 98.5672 48.9507 97.5789 49.0756C96.4587 49.2171 95.1497 49.3181 93.7695 49.4246C92.7101 49.5063 91.6089 49.5913 90.519 49.7003L90.509 49.7013L90.4995 49.7042C90.1837 49.8014 89.9539 50.0962 89.7853 50.5522C89.6158 51.0107 89.4991 51.6553 89.4246 52.4941C89.2756 54.1729 89.2936 56.6578 89.4165 60.0534C89.524 63.0249 89.7124 66.7021 89.9404 71.1556C90.2333 76.875 90.5918 83.8746 90.929 92.3038L91.1288 92.2958C90.7913 83.8583 90.433 76.8625 90.1402 71.1466C89.9122 66.6959 89.724 63.0212 89.6163 60.0462C89.4934 56.6501 89.476 54.1767 89.6238 52.5118C89.6978 51.6787 89.8126 51.055 89.9729 50.6216C90.1319 50.1916 90.3271 49.9709 90.5492 49.8983C91.6243 49.7909 92.7191 49.7064 93.7753 49.6248C95.1622 49.5177 96.4824 49.4157 97.604 49.274C98.5949 49.1488 99.4427 48.9916 100.055 48.7688C100.362 48.6574 100.615 48.5275 100.799 48.3724C100.982 48.2181 101.101 48.0352 101.127 47.8193L105.624 31.8292C106.432 29.4017 106.012 27.4557 105.152 26.0111C104.294 24.5701 103.002 23.6325 102.07 23.2088L102.063 23.2061Z"
        fill="black"
        fill-rule="evenodd" />
  <g filter="url(#filter0_d_6358_14750)">
    <path clip-rule="evenodd"
          d="M63.815 81.7671L67.2434 73.129C67.6568 72.0873 68.6406 71.3831 69.7599 71.3275L79.0422 70.8668C80.0138 70.8186 80.9433 71.2675 81.5095 72.0585L95.971 92.2604C96.8904 93.5448 96.5946 95.3313 95.3102 96.2507L82.5995 105.35C81.3152 106.269 79.5286 105.973 78.6092 104.689L64.1477 84.4869C63.5815 83.6959 63.4562 82.6713 63.815 81.7671ZM76.9334 84.007C78.3538 82.9902 78.681 81.0145 77.6642 79.5941C76.6474 78.1738 74.6717 77.8466 73.2513 78.8634C71.831 79.8801 71.5038 81.8558 72.5206 83.2762C73.5373 84.6966 75.513 85.0237 76.9334 84.007Z"
          fill="white"
          fill-rule="evenodd" />
    <path clip-rule="evenodd"
          d="M79.4849 89.6467C77.8669 91.3126 77.0833 93.509 76.8656 95.0118C76.8171 95.346 76.507 95.5776 76.1729 95.5292C75.8387 95.4808 75.6071 95.1707 75.6555 94.8365C75.9012 93.1404 76.7713 90.6857 78.6079 88.7948C80.4719 86.8758 83.2973 85.5767 87.3283 86.1964C87.662 86.2477 87.891 86.5598 87.8397 86.8935C87.7884 87.2272 87.4762 87.4562 87.1425 87.4049C83.5059 86.8458 81.0756 88.0091 79.4849 89.6467Z"
          fill="#FFA440"
          fill-rule="evenodd" />
    <path clip-rule="evenodd"
          d="M81.6827 91.9665C80.7959 92.8831 80.3662 94.1052 80.2505 94.9404C80.2041 95.2748 79.8954 95.5083 79.561 95.462C79.2266 95.4157 78.993 95.107 79.0393 94.7726C79.1818 93.7445 79.6965 92.2611 80.8039 91.1163C81.9396 89.9424 83.6617 89.1669 86.0879 89.5553C86.4213 89.6086 86.6483 89.9222 86.5949 90.2556C86.5415 90.5889 86.228 90.816 85.8946 90.7626C83.8632 90.4374 82.5412 91.0791 81.6827 91.9665Z"
          fill="#FFA440"
          fill-rule="evenodd" />
    <path clip-rule="evenodd"
          d="M84.1566 94.3009C83.7924 94.6756 83.6087 95.183 83.5589 95.5238C83.5101 95.8579 83.1997 96.0891 82.8656 96.0403C82.5315 95.9915 82.3002 95.6811 82.3491 95.347C82.4271 94.8128 82.6975 94.0477 83.2799 93.4486C83.8895 92.8216 84.8061 92.4159 86.0523 92.6059C86.3861 92.6568 86.6154 92.9686 86.5645 93.3024C86.5136 93.6361 86.2018 93.8655 85.868 93.8146C85.0162 93.6847 84.4936 93.9542 84.1566 94.3009Z"
          fill="#FFA440"
          fill-rule="evenodd" />
    <path d="M86.3451 96.0299C86.549 96.3054 86.491 96.6941 86.2155 96.898C85.94 97.1019 85.5513 97.0439 85.3474 96.7684C85.1434 96.4929 85.2015 96.1042 85.477 95.9003C85.7525 95.6963 86.1412 95.7544 86.3451 96.0299Z"
          fill="#FFA440" />
  </g>
  <defs>
    <filter color-interpolation-filters="sRGB" filterUnits="userSpaceOnUse" height="47.0215" id="filter0_d_6358_14750"
            width="44.8926"
            x="57.6133" y="65.8633">
      <feFlood flood-opacity="0" result="BackgroundImageFix" />
      <feColorMatrix in="SourceAlpha" result="hardAlpha" type="matrix"
                     values="0 0 0 0 0 0 0 0 0 0 0 0 0 0 0 0 0 0 127 0" />
      <feOffset dy="1" />
      <feGaussianBlur stdDeviation="3" />
      <feComposite in2="hardAlpha" operator="out" />
      <feColorMatrix type="matrix" values="0 0 0 0 0 0 0 0 0 0 0 0 0 0 0 0 0 0 0.18 0" />
      <feBlend in2="BackgroundImageFix" mode="normal" result="effect1_dropShadow_6358_14750" />
      <feBlend in="SourceGraphic" in2="effect1_dropShadow_6358_14750" mode="normal" result="shape" />
    </filter>
  </defs>
</svg>
