<svg fill="none" height="40" viewBox="0 0 40 40" width="40" xmlns="http://www.w3.org/2000/svg">
  <rect fill="#F5F5F5" height="40" rx="20" width="40" />
  <path clip-rule="evenodd" d="M14.2605 11.0029C13.9597 11.0029 13.6831 11.168 13.5402 11.4327L10.6086 16.864C10.5947 16.8887 10.5821 16.9141 10.5709 16.94C10.5238 17.0486 10.502 17.1627 10.5035 17.2752C10.5047 17.3877 10.5293 17.5013 10.579 17.6087C10.5911 17.6348 10.6045 17.6604 10.6193 17.6852C10.9538 18.2658 11.5285 18.9646 12.3182 19.4323V28.7578C12.3182 29.2099 12.6847 29.5764 13.1368 29.5764H18.5607C18.5673 29.5766 18.5739 29.5767 18.5806 29.5767C18.5872 29.5767 18.5938 29.5766 18.6004 29.5764H23.3997C23.4063 29.5766 23.4129 29.5767 23.4195 29.5767C23.4261 29.5767 23.4327 29.5766 23.4393 29.5764H28.8633C29.3154 29.5764 29.6819 29.2099 29.6819 28.7578V19.2322C30.2205 18.8934 30.7585 18.4265 31.2864 17.8132C31.3211 17.7747 31.3518 17.7332 31.3783 17.6894C31.4415 17.5853 31.479 17.4708 31.4917 17.3546C31.5045 17.2385 31.4927 17.1187 31.4536 17.0035C31.4374 16.9553 31.4166 16.9084 31.3913 16.8635L28.4993 11.4366C28.3571 11.1697 28.0793 11.0029 27.7769 11.0029H14.2605ZM28.0447 19.8883C27.5078 19.9866 26.9803 19.9728 26.4719 19.8659C25.4793 19.6571 24.6503 19.1112 24.0416 18.5269C23.5432 19.0439 23.0099 19.4136 22.4503 19.6479C21.6363 19.9887 20.8238 20.0187 20.0802 19.8669C19.0109 19.6485 18.074 19.0549 17.3856 18.4431C16.2175 19.566 15.0497 20.0172 13.9554 19.9483V27.9392H17.762V24.7256C17.762 24.2244 17.9345 23.5212 18.445 22.9303C18.9811 22.3098 19.8228 21.8908 21 21.8908C21.5076 21.8908 22.269 22.0121 22.9334 22.4107C23.6405 22.835 24.2381 23.5842 24.2381 24.7256V27.9392H28.0447V19.8883ZM22.6009 27.9392V24.7256C22.6009 24.2541 22.392 23.9952 22.091 23.8146C21.7473 23.6084 21.2989 23.528 21 23.528C20.2417 23.528 19.8736 23.7811 19.6839 24.0007C19.4685 24.2499 19.3992 24.5548 19.3992 24.7256V27.9392H22.6009ZM13.7479 18.268C13.1537 18.128 12.6339 17.695 12.275 17.2236L14.7489 12.6401H27.2855L29.6824 17.138C28.5415 18.2814 27.5526 18.4201 26.8089 18.2637C25.8998 18.0725 25.1202 17.3911 24.6905 16.7895C24.5368 16.5744 24.2887 16.4467 24.0244 16.4467C23.76 16.4467 23.5119 16.5744 23.3582 16.7895C22.8226 17.5394 22.2927 17.939 21.8181 18.1377C21.3467 18.335 20.8738 18.3579 20.4077 18.2627C19.4387 18.0649 18.5284 17.3579 17.9924 16.7326C17.8368 16.5511 17.6098 16.4467 17.3708 16.4467C17.1319 16.4467 16.9048 16.5511 16.7493 16.7326C15.4237 18.2792 14.4029 18.4223 13.7479 18.268Z"
        fill="#212121"
        fill-rule="evenodd" />
</svg>
