<svg fill="none" height="18" viewBox="0 0 18 18" width="18" xmlns="http://www.w3.org/2000/svg">
  <path d="M1.7999 18C1.3031 18 0.899902 17.5968 0.899902 17.1V0.9C0.899902 0.4032 1.3031 0 1.7999 0H10.7999C11.2967 0 11.6999 0.4032 11.6999 0.9V7.2H16.1999C16.6967 7.2 17.0999 7.6032 17.0999 8.1V17.1C17.0999 17.5968 16.6967 18 16.1999 18H1.7999ZM7.1999 16.2H9.8999V1.8H2.6999V16.2H5.3999V14.4C5.3999 13.9032 5.8031 13.5 6.2999 13.5C6.7967 13.5 7.1999 13.9032 7.1999 14.4V16.2ZM11.6999 9V16.2H15.2999V9H11.6999ZM5.3999 9H7.1999C7.6967 9 8.0999 8.5968 8.0999 8.1C8.0999 7.6032 7.6967 7.2 7.1999 7.2H5.3999C4.9031 7.2 4.4999 7.6032 4.4999 8.1C4.4999 8.5968 4.9031 9 5.3999 9ZM5.3999 5.4H7.1999C7.6967 5.4 8.0999 4.9968 8.0999 4.5C8.0999 4.0032 7.6967 3.6 7.1999 3.6H5.3999C4.9031 3.6 4.4999 4.0032 4.4999 4.5C4.4999 4.9968 4.9031 5.4 5.3999 5.4Z"
        fill="#9E9E9E" />
</svg>
