<svg fill="none" height="120" viewBox="0 0 120 120" width="120" xmlns="http://www.w3.org/2000/svg">
  <path d="M59.5118 30.9236C62.4298 30.8976 65.2365 29.8 67.3981 27.8396C69.5596 25.8792 70.9253 23.1926 71.2352 20.291C71.2229 20.0074 71.1054 19.7385 70.9057 19.5368C70.7059 19.3352 70.4381 19.2151 70.1546 19.2002C69.8571 19.2007 69.5624 19.2569 69.2856 19.3659C66.1375 20.4055 62.8368 20.9078 59.522 20.8517C56.2069 20.9111 52.9057 20.4087 49.7584 19.3659C49.4462 19.257 49.118 19.201 48.7874 19.2002C48.6491 19.2057 48.5133 19.2387 48.3879 19.2973C48.2625 19.3558 48.15 19.4388 48.0571 19.5413C47.9641 19.6438 47.8924 19.7637 47.8463 19.8942C47.8001 20.0247 47.7804 20.163 47.7883 20.3012C48.1065 23.1986 49.4749 25.8792 51.6349 27.8364C53.795 29.7936 56.5971 30.8918 59.5118 30.9236Z"
        fill="#424242" />
  <path d="M101.56 29.8152L77.8585 21.5171C77.757 21.4818 77.6491 21.4693 77.5423 21.4803C77.4355 21.4912 77.3325 21.5255 77.2404 21.5807C77.1483 21.6359 77.0694 21.7106 77.0093 21.7995C76.9492 21.8885 76.9093 21.9896 76.8925 22.0956C76.2059 26.2035 74.0848 29.9348 70.9062 32.6261C67.7277 35.3174 63.6978 36.7944 59.5329 36.7944C55.368 36.7944 51.3381 35.3174 48.1596 32.6261C44.9811 29.9348 42.8599 26.2035 42.1733 22.0956C42.157 21.9877 42.1169 21.8848 42.0558 21.7944C41.9948 21.704 41.9143 21.6283 41.8203 21.5729C41.7264 21.5175 41.6212 21.4837 41.5125 21.4741C41.4038 21.4644 41.2944 21.4791 41.1921 21.5171L17.4904 29.8152C16.8281 30.0475 16.2711 30.5095 15.9204 31.1174C15.5697 31.7253 15.4485 32.4388 15.5789 33.1284L18.6372 49.2609C18.7544 49.8753 19.0648 50.4362 19.5233 50.8617C19.9818 51.2872 20.5643 51.5549 21.1858 51.6259L30.1466 52.6454C30.5126 52.6862 30.8497 52.8633 31.0911 53.1414C31.3324 53.4196 31.4601 53.7784 31.4489 54.1465L30.0956 98.3107C30.0777 98.8802 30.2261 99.4425 30.5225 99.929C30.819 100.416 31.2507 100.805 31.7649 101.05C32.1924 101.243 32.657 101.34 33.1259 101.333H85.9221C86.391 101.34 86.8556 101.243 87.2831 101.05C87.7969 100.805 88.228 100.415 88.524 99.9285C88.82 99.442 88.9679 98.8799 88.9499 98.3107L87.6068 54.1465C87.5955 53.7784 87.7233 53.4196 87.9646 53.1414C88.2059 52.8633 88.5431 52.6862 88.9091 52.6454L97.8699 51.6259C98.4913 51.5549 99.0738 51.2872 99.5323 50.8617C99.9908 50.4362 100.301 49.8753 100.418 49.2609L103.477 33.1284C103.607 32.4388 103.486 31.7253 103.135 31.1174C102.785 30.5095 102.228 30.0475 101.565 29.8152H101.56Z"
        fill="#FFA440" />
  <path clip-rule="evenodd"
        d="M16.9934 27.4062L34.4934 20.9062L34.5631 21.0937L17.0664 27.5925C16.1655 28.0028 14.9095 28.9146 14.0767 30.3136C13.2452 31.7104 12.8326 33.5969 13.6231 35.9684L13.6246 35.9729L18.1262 51.9808L18.1271 51.989C18.1444 52.1444 18.2284 52.2868 18.3861 52.4196C18.545 52.5535 18.7744 52.6736 19.0697 52.781C19.6601 52.9957 20.4894 53.1509 21.4777 53.2758C22.5979 53.4173 23.907 53.5183 25.2872 53.6248C26.3465 53.7065 27.4477 53.7915 28.5377 53.9005L28.5476 53.9015L28.5571 53.9044C28.873 54.0016 29.1027 54.2964 29.2713 54.7524C29.4409 55.2109 29.5576 55.8555 29.632 56.6943C29.7811 58.3731 29.7631 60.858 29.6402 64.2536C29.5326 67.2251 29.3443 70.9023 29.1162 75.3558C28.8233 81.0752 28.4648 88.0748 28.1277 96.504L27.9278 96.496C28.2653 88.0585 28.6237 81.0627 28.9164 75.3468C29.1444 70.8961 29.3326 67.2214 29.4403 64.2464C29.5632 60.8503 29.5806 58.3769 29.4328 56.712C29.3589 55.8789 29.244 55.2552 29.0837 54.8218C28.9247 54.3918 28.7295 54.171 28.5074 54.0985C27.4323 53.9911 26.3375 53.9065 25.2813 53.825C23.8945 53.7178 22.5742 53.6159 21.4526 53.4742C20.4618 53.349 19.6139 53.1917 19.0013 52.969C18.695 52.8576 18.4413 52.7277 18.2572 52.5726C18.0741 52.4183 17.9558 52.2353 17.9293 52.0195L13.4326 36.0293C12.6241 33.6019 13.0449 31.6558 13.9048 30.2113C14.7627 28.7703 16.0546 27.8327 16.9869 27.409L16.9934 27.4062Z"
        fill="black"
        fill-rule="evenodd" />
  <path clip-rule="evenodd"
        d="M102.063 27.4062L84.5632 20.9062L84.4936 21.0937L101.99 27.5925C102.891 28.0028 104.147 28.9146 104.98 30.3136C105.811 31.7104 106.224 33.5969 105.434 35.9684L105.432 35.9729L100.93 51.9808L100.93 51.989C100.912 52.1444 100.828 52.2868 100.671 52.4196C100.512 52.5535 100.282 52.6736 99.987 52.781C99.3965 52.9957 98.5672 53.1509 97.5789 53.2758C96.4587 53.4173 95.1497 53.5183 93.7695 53.6248C92.7101 53.7065 91.6089 53.7915 90.519 53.9005L90.509 53.9015L90.4995 53.9044C90.1837 54.0016 89.9539 54.2964 89.7853 54.7524C89.6158 55.2109 89.4991 55.8555 89.4246 56.6943C89.2756 58.3731 89.2936 60.858 89.4165 64.2536C89.524 67.2251 89.7124 70.9023 89.9404 75.3558C90.2333 81.0752 90.5918 88.0748 90.929 96.504L91.1288 96.496C90.7913 88.0585 90.433 81.0627 90.1402 75.3468C89.9122 70.8961 89.724 67.2214 89.6163 64.2464C89.4934 60.8503 89.476 58.3769 89.6238 56.712C89.6978 55.8789 89.8126 55.2552 89.9729 54.8218C90.1319 54.3918 90.3271 54.171 90.5492 54.0985C91.6243 53.9911 92.7191 53.9065 93.7753 53.825C95.1622 53.7178 96.4824 53.6159 97.604 53.4742C98.5949 53.349 99.4427 53.1917 100.055 52.969C100.362 52.8576 100.615 52.7277 100.799 52.5726C100.982 52.4183 101.101 52.2353 101.127 52.0195L105.624 36.0293C106.432 33.6019 106.012 31.6558 105.152 30.2113C104.294 28.7703 103.002 27.8327 102.07 27.409L102.063 27.4062Z"
        fill="black"
        fill-rule="evenodd" />
  <g filter="url(#filter0_d_6290_20632)">
    <rect fill="white" height="30" rx="15" shape-rendering="crispEdges" width="30" x="71" y="81" />
    <rect fill="white" height="17.3018" rx="5" width="17.3018" x="77.3491" y="87.3491" />
    <path clip-rule="evenodd"
          d="M86.5481 90.0614C86.5481 89.7578 86.3027 89.5117 85.9999 89.5117C85.6971 89.5117 85.4516 89.7578 85.4516 90.0614V95.4329H80.06C79.7572 95.4329 79.5117 95.679 79.5117 95.9826C79.5117 96.2862 79.7572 96.5323 80.06 96.5323H85.4516V101.938C85.4516 102.242 85.6971 102.488 85.9999 102.488C86.3027 102.488 86.5481 102.242 86.5481 101.938V96.5323H91.9398C92.2426 96.5323 92.488 96.2862 92.488 95.9826C92.488 95.679 92.2426 95.4329 91.9398 95.4329H86.5481V90.0614Z"
          fill="#212121"
          fill-rule="evenodd" />
  </g>
  <defs>
    <filter color-interpolation-filters="sRGB" filterUnits="userSpaceOnUse" height="42" id="filter0_d_6290_20632"
            width="42" x="65"
            y="76">
      <feFlood flood-opacity="0" result="BackgroundImageFix" />
      <feColorMatrix in="SourceAlpha" result="hardAlpha" type="matrix"
                     values="0 0 0 0 0 0 0 0 0 0 0 0 0 0 0 0 0 0 127 0" />
      <feOffset dy="1" />
      <feGaussianBlur stdDeviation="3" />
      <feComposite in2="hardAlpha" operator="out" />
      <feColorMatrix type="matrix" values="0 0 0 0 0 0 0 0 0 0 0 0 0 0 0 0 0 0 0.18 0" />
      <feBlend in2="BackgroundImageFix" mode="normal" result="effect1_dropShadow_6290_20632" />
      <feBlend in="SourceGraphic" in2="effect1_dropShadow_6290_20632" mode="normal" result="shape" />
    </filter>
  </defs>
</svg>
