<svg fill="none" height="24" viewBox="0 0 24 24" width="24" xmlns="http://www.w3.org/2000/svg">
  <path clip-rule="evenodd"
        d="M11.3947 2.40362C10.4004 1.86546 9.20173 1.86546 8.20748 2.40362L1.93416 5.79915C0.853329 6.38417 0.179932 7.51436 0.179932 8.74337V15.2566C0.179932 16.4856 0.853328 17.6158 1.93416 18.2009L8.20748 21.5964C9.20173 22.1346 10.4004 22.1346 11.3947 21.5964L17.668 18.2009C18.7488 17.6158 19.4222 16.4856 19.4222 15.2566V14.1258C21.9327 13.6073 23.8199 11.3841 23.8199 8.71999C23.8199 5.67138 21.3486 3.19999 18.2999 3.19999C17.0417 3.19999 15.8818 3.62098 14.9533 4.32979L11.3947 2.40362ZM13.4669 11.3889C14.3343 12.9563 15.9421 14.0571 17.8183 14.2193V15.2566C17.8183 15.8968 17.4675 16.4856 16.9045 16.7903L11.5578 19.6843V13.1141C11.5578 12.7148 11.7727 12.3464 12.1203 12.15L13.4669 11.3889ZM12.7799 8.71999C12.7799 9.11339 12.8211 9.49717 12.8993 9.86728L11.3311 10.7537C11.0591 10.9074 10.8203 11.1041 10.6212 11.3326C10.5947 11.3151 10.5668 11.299 10.5377 11.2844L2.55743 7.29429C2.60254 7.2641 2.64931 7.23585 2.69764 7.20969L8.97095 3.81416C9.48887 3.53382 10.1133 3.53382 10.6312 3.81416L13.7964 5.52734C13.1563 6.42863 12.7799 7.53036 12.7799 8.71999ZM9.82218 12.7155C9.87211 12.7405 9.92339 12.7597 9.9753 12.7735C9.96112 12.8856 9.95387 12.9993 9.95387 13.1141V20.3894C9.61831 20.4189 9.27614 20.351 8.97095 20.1859L2.69764 16.7903C2.13462 16.4856 1.78384 15.8968 1.78384 15.2566V8.74337C1.78384 8.72736 1.78406 8.71137 1.78449 8.69543C1.79681 8.70242 1.80937 8.70912 1.82218 8.71553L9.82218 12.7155ZM3.53771 11.2844C3.14252 11.0869 2.66198 11.247 2.46439 11.6422C2.2668 12.0374 2.42698 12.5179 2.82216 12.7155L6.82217 14.7155C7.21735 14.9131 7.69789 14.7529 7.89548 14.3578C8.09307 13.9626 7.93289 13.482 7.53771 13.2844L3.53771 11.2844ZM18.2999 13.04C20.6858 13.04 22.6199 11.1059 22.6199 8.71999C22.6199 6.33412 20.6858 4.39999 18.2999 4.39999C15.9141 4.39999 13.9799 6.33412 13.9799 8.71999C13.9799 11.1059 15.9141 13.04 18.2999 13.04ZM19.3501 6.97637C19.5818 6.74123 19.9604 6.74123 20.1922 6.97637C20.4203 7.20783 20.4203 7.58042 20.1922 7.81188L17.7543 10.2852C17.5157 10.5272 17.1267 10.5272 16.8881 10.2852L15.9511 9.33451C15.7229 9.10305 15.7229 8.73046 15.9511 8.499C16.1828 8.26386 16.5614 8.26386 16.7932 8.499L17.3212 9.03469L19.3501 6.97637Z"
        fill="#FFFFFF"
        fill-rule="evenodd" />
</svg>
