<svg width="18" height="18" viewBox="0 0 18 18" fill="none" xmlns="http://www.w3.org/2000/svg">
<path fill-rule="evenodd" clip-rule="evenodd" d="M9.57036 2.82188C9.57036 2.50604 9.315 2.25 9 2.25C8.685 2.25 8.42964 2.50604 8.42964 2.82188V8.41016H2.82036C2.50536 8.41016 2.25 8.66619 2.25 8.98203C2.25 9.29787 2.50536 9.55391 2.82036 9.55391H8.42964V15.1781C8.42964 15.494 8.685 15.75 9 15.75C9.315 15.75 9.57036 15.494 9.57036 15.1781V9.55391H15.1796C15.4946 9.55391 15.75 9.29787 15.75 8.98203C15.75 8.66619 15.4946 8.41016 15.1796 8.41016H9.57036V2.82188Z" fill="white"/>
</svg>
