<svg width="18" height="18" viewBox="0 0 18 18" fill="none" xmlns="http://www.w3.org/2000/svg">
<path fill-rule="evenodd" clip-rule="evenodd" d="M12.4151 2.17133C12.3063 2.06143 12.158 1.99973 12.0033 2C11.8487 2.00028 11.7006 2.06251 11.5922 2.17279L4.35442 9.53532C4.26406 9.62724 4.20702 9.74671 4.19236 9.87477L3.8799 12.604C3.85953 12.782 3.92284 12.9594 4.05131 13.0842C4.17979 13.2091 4.3589 13.2673 4.53624 13.2418L7.28853 12.8469C7.41353 12.8289 7.52922 12.7705 7.6179 12.6806L14.8039 5.39591C15.0262 5.17056 15.0259 4.80831 14.8032 4.58336L12.4151 2.17133ZM5.3182 10.2039L12.0058 3.40096L13.5798 4.99076L6.93165 11.7303L5.11357 11.9912L5.3182 10.2039ZM3.07798 14.844C2.75877 14.844 2.5 15.1028 2.5 15.422C2.5 15.7412 2.75877 16 3.07798 16H15.0046C15.3238 16 15.5826 15.7412 15.5826 15.422C15.5826 15.1028 15.3238 14.844 15.0046 14.844H3.07798Z" fill="black"/>
</svg>
