<svg fill="none" height="15" viewBox="0 0 12 15" width="12" xmlns="http://www.w3.org/2000/svg">
  <path clip-rule="evenodd"
        d="M1.28546 0.75C0.989732 0.75 0.75 0.989732 0.75 1.28546V3.15144C0.75 3.44717 0.989732 3.6869 1.28546 3.6869H10.9237C11.2194 3.6869 11.4591 3.44717 11.4591 3.15144V1.28546C11.4591 0.989732 11.2194 0.75 10.9237 0.75H1.28546ZM1.82091 2.61599V1.82091H10.3882V2.61599H1.82091ZM2.17782 4.41707C1.8821 4.41707 1.64236 4.6568 1.64236 4.95253V13.7145C1.64236 14.0103 1.8821 14.25 2.17782 14.25H9.96628C10.262 14.25 10.5017 14.0103 10.5017 13.7145V4.95253C10.5017 4.6568 10.262 4.41707 9.96628 4.41707H2.17782ZM2.71328 13.1791V5.48798H9.43083V13.1791H2.71328ZM4.74968 6.67897C5.04541 6.67897 5.28514 6.9187 5.28514 7.21443V11.5727C5.28514 11.8684 5.04541 12.1082 4.74968 12.1082C4.45396 12.1082 4.21422 11.8684 4.21422 11.5727V7.21443C4.21422 6.9187 4.45396 6.67897 4.74968 6.67897ZM7.9301 7.21443C7.9301 6.9187 7.69036 6.67897 7.39464 6.67897C7.09892 6.67897 6.85918 6.9187 6.85918 7.21443V11.5727C6.85918 11.8684 7.09892 12.1082 7.39464 12.1082C7.69036 12.1082 7.9301 11.8684 7.9301 11.5727V7.21443Z"
        fill="#9E9E9E"
        fill-rule="evenodd" />
</svg>
