<svg fill="none" height="41" viewBox="0 0 40 41" width="40" xmlns="http://www.w3.org/2000/svg">
  <rect fill="#F5F5F5" height="40" rx="20" width="40" y="0.6875" />
  <path clip-rule="evenodd" d="M24.2481 13.8412C24.1439 11.8077 22.4621 10.1909 20.4026 10.1909C18.3432 10.1909 16.6614 11.8077 16.5572 13.8412H15.921C14.7014 13.8412 13.6582 14.7177 13.448 15.919L11.2917 28.2408C11.0228 29.7771 12.205 31.1842 13.7647 31.1842H27.7653C29.3496 31.1842 30.5378 29.7347 30.2271 28.1812L27.7627 15.8594C27.528 14.6859 26.4977 13.8412 25.3009 13.8412H24.2481ZM18.5031 13.8412H22.3021C22.2021 12.8806 21.3898 12.1316 20.4026 12.1316C19.4155 12.1316 18.6032 12.8806 18.5031 13.8412ZM15.921 15.7819C15.6441 15.7819 15.4073 15.9809 15.3596 16.2536L13.2033 28.5754C13.1423 28.9241 13.4106 29.2435 13.7647 29.2435H27.7653C28.1249 29.2435 28.3946 28.9145 28.3241 28.5618L25.8597 16.24C25.8065 15.9737 25.5726 15.7819 25.3009 15.7819H15.921ZM20.4028 18.4619C20.9387 18.4619 21.3732 18.8963 21.3732 19.4323V22.3125H24.2534C24.7893 22.3125 25.2237 22.7469 25.2237 23.2828C25.2237 23.8187 24.7893 24.2532 24.2534 24.2532H21.3732V27.1334C21.3732 27.6693 20.9387 28.1037 20.4028 28.1037C19.8669 28.1037 19.4325 27.6693 19.4325 27.1334V24.2532H16.5523C16.0163 24.2532 15.5819 23.8187 15.5819 23.2828C15.5819 22.7469 16.0163 22.3125 16.5523 22.3125H19.4325V19.4323C19.4325 18.8963 19.8669 18.4619 20.4028 18.4619Z"
        fill="black"
        fill-rule="evenodd" />
</svg>
