<svg fill="none" height="24" viewBox="0 0 24 24" width="24" xmlns="http://www.w3.org/2000/svg">
  <path clip-rule="evenodd"
        d="M14.7965 4.32289C15.5919 3.89237 16.5509 3.89237 17.3463 4.32289L22.365 7.03932C23.2296 7.50733 23.7683 8.41149 23.7683 9.39469V14.6053C23.7683 15.5885 23.2296 16.4927 22.365 16.9607L17.3463 19.6771C16.5509 20.1076 15.5919 20.1076 14.7965 19.6771L9.7779 16.9607C8.91323 16.4927 8.37451 15.5885 8.37451 14.6053V9.39469C8.37451 8.41149 8.91323 7.50733 9.7779 7.03932L14.7965 4.32289ZM16.7355 5.45132C16.3212 5.22706 15.8217 5.22706 15.4073 5.45132L10.3887 8.16775C9.93826 8.41154 9.65764 8.88253 9.65764 9.39469V14.6053C9.65764 15.1175 9.93826 15.5885 10.3887 15.8323L15.4073 18.5487C15.6515 18.6808 15.9252 18.7351 16.1937 18.7115V12.8913C16.1937 12.1092 16.6146 11.3877 17.2954 11.0029L22.0047 8.34116C21.9287 8.27515 21.8449 8.21684 21.7542 8.16775L19.4543 6.92291C19.4028 7.03469 19.3185 7.13288 19.2055 7.20169L14.0833 10.3196C13.8191 10.4803 13.6579 10.7672 13.6579 11.0764V12.5092C13.6579 12.8635 13.3707 13.1508 13.0164 13.1508C12.6621 13.1508 12.3748 12.8635 12.3748 12.5092V11.0764C12.3748 10.3194 12.7695 9.61713 13.4161 9.22353L18.2588 6.27581L16.7355 5.45132ZM21.7542 15.8323L17.4768 18.1475V12.8913C17.4768 12.5718 17.6487 12.2771 17.9268 12.12L22.4852 9.54348V14.6053C22.4852 15.1175 22.2046 15.5885 21.7542 15.8323ZM0.231445 9.6C0.231445 9.24654 0.517983 8.96 0.871445 8.96L5.67145 8.96C6.02491 8.96 6.31145 9.24653 6.31145 9.6C6.31145 9.95346 6.02491 10.24 5.67145 10.24L0.871445 10.24C0.517983 10.24 0.231445 9.95346 0.231445 9.6ZM3.27145 12.16C2.91798 12.16 2.63145 12.4465 2.63145 12.8C2.63145 13.1535 2.91798 13.44 3.27145 13.44H5.67145C6.02491 13.44 6.31145 13.1535 6.31145 12.8C6.31145 12.4465 6.02491 12.16 5.67145 12.16H3.27145Z"
        fill="#FFF"
        fill-rule="evenodd" />
</svg>
