<svg width="40" height="40" viewBox="0 0 40 40" fill="none" xmlns="http://www.w3.org/2000/svg">
<path d="M0 5.71429C0 4.19876 0.526784 2.74531 1.46447 1.67368C2.40215 0.602039 3.67392 0 5 0H35C36.3261 0 37.5979 0.602039 38.5355 1.67368C39.4732 2.74531 40 4.19876 40 5.71429V34.2857C40 35.8012 39.4732 37.2547 38.5355 38.3263C37.5979 39.398 36.3261 40 35 40H5C3.67392 40 2.40215 39.398 1.46447 38.3263C0.526784 37.2547 0 35.8012 0 34.2857V5.71429ZM2.5 31.4286V34.2857C2.5 35.0435 2.76339 35.7702 3.23223 36.306C3.70107 36.8418 4.33696 37.1429 5 37.1429H35C35.663 37.1429 36.2989 36.8418 36.7678 36.306C37.2366 35.7702 37.5 35.0435 37.5 34.2857V24.2857L28.0575 18.7229C27.8231 18.5886 27.5576 18.5421 27.2987 18.5898C27.0399 18.6374 26.8007 18.777 26.615 18.9886L17.34 29.5886L10.69 24.5257C10.4499 24.343 10.1619 24.2609 9.87485 24.2931C9.58779 24.3254 9.31933 24.4702 9.115 24.7029L2.5 31.4286ZM15 12.8571C15 11.7205 14.6049 10.6304 13.9017 9.82668C13.1984 9.02296 12.2446 8.57143 11.25 8.57143C10.2554 8.57143 9.30161 9.02296 8.59835 9.82668C7.89509 10.6304 7.5 11.7205 7.5 12.8571C7.5 13.9938 7.89509 15.0839 8.59835 15.8876C9.30161 16.6913 10.2554 17.1429 11.25 17.1429C12.2446 17.1429 13.1984 16.6913 13.9017 15.8876C14.6049 15.0839 15 13.9938 15 12.8571Z" fill="url(#paint0_linear_7176_3326)"/>
<defs>
<linearGradient id="paint0_linear_7176_3326" x1="7.48988" y1="4.46203" x2="15.5476" y2="30.8749" gradientUnits="userSpaceOnUse">
<stop stop-color="#FFC280"/>
<stop offset="1" stop-color="#FFAA4D"/>
</linearGradient>
</defs>
</svg>
