<svg width="18" height="18" viewBox="0 0 18 18" fill="none" xmlns="http://www.w3.org/2000/svg">
<path fill-rule="evenodd" clip-rule="evenodd" d="M9 14.25C4.44365 14.25 0.75 9 0.75 9C0.75 9 4.44365 3.75 9 3.75C13.5563 3.75 17.25 9 17.25 9C17.25 9 13.5563 14.25 9 14.25ZM2.18477 9.15325C2.13958 9.09997 2.09678 9.0488 2.05643 9C2.09678 8.9512 2.13958 8.90003 2.18477 8.84675C2.57876 8.38225 3.14775 7.76447 3.84726 7.14951C5.27957 5.89032 7.10182 4.78125 9 4.78125C10.8982 4.78125 12.7204 5.89032 14.1527 7.14951C14.8522 7.76447 15.4212 8.38225 15.8152 8.84675C15.8604 8.90003 15.9032 8.9512 15.9436 9C15.9032 9.0488 15.8604 9.09997 15.8152 9.15325C15.4212 9.61775 14.8522 10.2355 14.1527 10.8505C12.7204 12.1097 10.8982 13.2188 9 13.2188C7.10182 13.2188 5.27957 12.1097 3.84726 10.8505C3.14775 10.2355 2.57876 9.61775 2.18477 9.15325ZM9.00018 11.2501C10.2428 11.2501 11.2502 10.2427 11.2502 9.00009C11.2502 7.75745 10.2428 6.75009 9.00018 6.75009C7.75754 6.75009 6.75018 7.75745 6.75018 9.00009C6.75018 10.2427 7.75754 11.2501 9.00018 11.2501Z" fill="#212121"/>
</svg>
