<svg width="32" height="40" viewBox="0 0 32 40" fill="none" xmlns="http://www.w3.org/2000/svg">
<path fill-rule="evenodd" clip-rule="evenodd" d="M4 0H20L32 12V36C32 37.0609 31.5786 38.0783 30.8284 38.8284C30.0783 39.5786 29.0609 40 28 40H4C2.93913 40 1.92172 39.5786 1.17157 38.8284C0.421427 38.0783 0 37.0609 0 36V4C0 2.93913 0.421427 1.92172 1.17157 1.17157C1.92172 0.421427 2.93913 0 4 0ZM18 4V14H28L18 4ZM8.32955 18.7273L9.65767 21.0249H9.71449L11.0568 18.7273H13.0241L10.8295 22.3637L13.0952 26H11.0781L9.71449 23.6776H9.65767L8.29403 26H6.29119L8.54617 22.3637L6.34801 18.7273H8.32955ZM13.9332 18.7273H15.6911V24.5725H18.7166V26H13.9332V18.7273ZM23.5577 20.9077C23.534 20.6473 23.4287 20.4449 23.2417 20.3005C23.057 20.1537 22.793 20.0803 22.4498 20.0803C22.2225 20.0803 22.0331 20.1099 21.8816 20.1691C21.7301 20.2282 21.6164 20.3099 21.5407 20.4141C21.4649 20.5159 21.4258 20.6331 21.4235 20.7657C21.4187 20.8746 21.44 20.9704 21.4874 21.0533C21.5371 21.1362 21.6081 21.2095 21.7005 21.2735C21.7952 21.335 21.9088 21.3895 22.0414 21.4368C22.1739 21.4842 22.3231 21.5256 22.4888 21.5611L23.1138 21.7032C23.4737 21.7813 23.7909 21.8854 24.0655 22.0157C24.3425 22.1459 24.5745 22.3009 24.7615 22.4809C24.9509 22.6608 25.0942 22.8679 25.1912 23.1023C25.2883 23.3367 25.338 23.5995 25.3404 23.8907C25.338 24.3499 25.222 24.7441 24.9924 25.0732C24.7627 25.4023 24.4325 25.6544 24.0016 25.8296C23.5731 26.0048 23.0558 26.0924 22.4498 26.0924C21.8413 26.0924 21.311 26.0012 20.8588 25.8189C20.4067 25.6366 20.0551 25.3596 19.8042 24.988C19.5532 24.6163 19.4242 24.1463 19.4171 23.5782H21.1003C21.1145 23.8125 21.1773 24.0078 21.2885 24.1641C21.3998 24.3203 21.5525 24.4387 21.7466 24.5192C21.9431 24.5997 22.1704 24.6399 22.4284 24.6399C22.6652 24.6399 22.8664 24.608 23.0321 24.5441C23.2002 24.4801 23.3293 24.3914 23.4192 24.2777C23.5092 24.1641 23.5553 24.0339 23.5577 23.8871C23.5553 23.7498 23.5127 23.6326 23.4299 23.5355C23.347 23.4361 23.2192 23.3509 23.0463 23.2799C22.8759 23.2065 22.6581 23.139 22.3929 23.0774L21.633 22.8999C21.0033 22.7555 20.5073 22.5223 20.1451 22.2003C19.7828 21.876 19.6029 21.438 19.6053 20.8864C19.6029 20.4366 19.7237 20.0424 19.9675 19.7039C20.2114 19.3653 20.5487 19.1014 20.9796 18.912C21.4105 18.7226 21.9017 18.6279 22.4533 18.6279C23.0168 18.6279 23.5056 18.7237 23.9199 18.9155C24.3366 19.1049 24.6597 19.3712 24.8894 19.7145C25.119 20.0578 25.2362 20.4555 25.2409 20.9077H23.5577ZM5.92308 30.0001C5.41328 30.0001 5 30.4133 5 30.9231C5 31.4329 5.41328 31.8462 5.92308 31.8462H14.0769C14.5867 31.8462 15 31.4329 15 30.9231C15 30.4133 14.5867 30.0001 14.0769 30.0001H5.92308ZM5.92308 33.077C5.41328 33.077 5 33.4903 5 34.0001C5 34.5099 5.41328 34.9231 5.92308 34.9231H14.0769C14.5867 34.9231 15 34.5099 15 34.0001C15 33.4903 14.5867 33.077 14.0769 33.077H5.92308ZM17 30.9231C17 30.4133 17.4133 30.0001 17.9231 30.0001H26.0769C26.5867 30.0001 27 30.4133 27 30.9231C27 31.4329 26.5867 31.8462 26.0769 31.8462H17.9231C17.4133 31.8462 17 31.4329 17 30.9231ZM17.9231 33.077C17.4133 33.077 17 33.4903 17 34.0001C17 34.5099 17.4133 34.9231 17.9231 34.9231H26.0769C26.5867 34.9231 27 34.5099 27 34.0001C27 33.4903 26.5867 33.077 26.0769 33.077H17.9231Z" fill="url(#paint0_linear_7021_31354)"/>
<defs>
<linearGradient id="paint0_linear_7021_31354" x1="5.9919" y1="4.46203" x2="15.6037" y2="29.6678" gradientUnits="userSpaceOnUse">
<stop stop-color="#FFC280"/>
<stop offset="1" stop-color="#FFAA4D"/>
</linearGradient>
</defs>
</svg>
