<svg fill="none" height="41" viewBox="0 0 40 41" width="40" xmlns="http://www.w3.org/2000/svg">
  <rect fill="#F5F5F5" height="40" rx="20" width="40" y="0.6875" />
  <path clip-rule="evenodd" d="M15.8539 10.9407C15.8539 10.5266 15.5212 10.1909 15.1107 10.1909C14.7003 10.1909 14.3676 10.5266 14.3676 10.9407V12.6276H12.2126C11.2686 12.6276 10.5034 13.3997 10.5034 14.3521V18.7382C10.5034 19.6906 11.2686 20.4626 12.2126 20.4626H16.0768C16.6648 20.4626 17.1561 20.0451 17.2754 19.4879H20.9071C21.0303 19.4879 21.1301 19.5886 21.1301 19.7129V24.5863C21.1301 24.7105 21.0303 24.8112 20.9071 24.8112H12.6956C11.7517 24.8112 10.9864 25.5833 10.9864 26.5357V29.4597C10.9864 30.4121 11.7517 31.1842 12.6956 31.1842H27.1865C28.1305 31.1842 28.8957 30.4121 28.8957 29.4597V21.5498H29.7875C30.7314 21.5498 31.4967 20.7777 31.4967 19.8253V16.4139C31.4967 15.4615 30.7314 14.6895 29.7875 14.6895H28.8957V14.3521C28.8957 13.3997 28.1305 12.6276 27.1865 12.6276H25.5145V10.9407C25.5145 10.5266 25.1818 10.1909 24.7714 10.1909C24.3609 10.1909 24.0282 10.5266 24.0282 10.9407V12.6276H15.8539V10.9407ZM28.8957 16.189V20.0502H29.7875C29.9106 20.0502 30.0104 19.9495 30.0104 19.8253V16.4139C30.0104 16.2897 29.9106 16.189 29.7875 16.189H28.8957ZM12.2126 14.1272C12.0895 14.1272 11.9897 14.2279 11.9897 14.3521V18.7382C11.9897 18.8624 12.0895 18.9631 12.2126 18.9631H15.8444C15.9637 18.4059 16.455 17.9884 17.0429 17.9884H20.9071C21.8511 17.9884 22.6163 18.7605 22.6163 19.7129V24.5863C22.6163 25.5387 21.8511 26.3107 20.9071 26.3107H12.6956C12.5725 26.3107 12.4727 26.4114 12.4727 26.5357V29.4597C12.4727 29.5839 12.5725 29.6846 12.6956 29.6846H27.1865C27.3097 29.6846 27.4095 29.5839 27.4095 29.4597V14.3521C27.4095 14.2279 27.3097 14.1272 27.1865 14.1272H12.2126ZM15.3709 16.7888C15.6377 16.7888 15.854 16.5706 15.854 16.3014C15.854 16.0323 15.6377 15.8141 15.3709 15.8141C15.1042 15.8141 14.8879 16.0323 14.8879 16.3014C14.8879 16.5706 15.1042 16.7888 15.3709 16.7888ZM15.3709 17.7635C16.1713 17.7635 16.82 17.1089 16.82 16.3014C16.82 15.494 16.1713 14.8394 15.3709 14.8394C14.5706 14.8394 13.9219 15.494 13.9219 16.3014C13.9219 17.1089 14.5706 17.7635 15.3709 17.7635Z"
        fill="black"
        fill-rule="evenodd" />
</svg>
