<svg fill="none" height="41" viewBox="0 0 40 41" width="40" xmlns="http://www.w3.org/2000/svg">
  <rect fill="#F5F5F5" height="40" rx="20" width="40" y="0.6875" />
  <path clip-rule="evenodd" d="M26.0235 10.2593L21 19.3495L15.9764 10.2593C15.6016 10.3842 14.9268 11.009 15.2267 12.5086C16.4411 14.6179 18.3356 17.9827 20.0171 21.1279L18.151 24.5047L17.7241 24.9316C17.3088 24.7247 16.8229 24.6348 16.3094 24.6676C14.8983 24.7577 13.0423 27.0713 13.1473 28.7176C13.2524 30.3638 14.4543 31.1995 15.8654 31.1095C17.2765 31.0194 19.1325 28.7058 19.0275 27.0595C19.0264 27.043 19.0252 27.0265 19.024 27.0101C19.4967 25.9418 20.1962 24.5344 21 22.9896C21.8038 24.5344 22.5032 25.9418 22.976 27.0101C22.9753 27.0192 22.9746 27.0283 22.9739 27.0375C22.9734 27.0448 22.9729 27.0522 22.9725 27.0595C22.8674 28.7058 24.7234 31.0194 26.1345 31.1095C27.5456 31.1995 28.7475 30.3638 28.8526 28.7176C28.9577 27.0713 27.1016 24.7577 25.6905 24.6676C25.177 24.6348 24.6912 24.7247 24.2758 24.9316L23.8489 24.5047L21.9828 21.1279C23.6643 17.9827 25.5588 14.6179 26.7733 12.5086C27.0732 11.009 26.3984 10.3842 26.0235 10.2593ZM17.1072 27.7016C17.2219 27.4168 17.2358 27.239 17.2317 27.1742C17.2072 26.7902 17.0778 26.6538 17.0144 26.6016C16.9339 26.5353 16.7608 26.4486 16.4556 26.4617C16.4356 26.4689 16.3585 26.4976 16.2257 26.589C16.0271 26.7257 15.794 26.9426 15.5728 27.2232C15.3528 27.5021 15.178 27.8016 15.0676 28.0755C14.9529 28.3603 14.939 28.5382 14.9431 28.6029C14.9676 28.9869 15.097 29.1233 15.1604 29.1755C15.2409 29.2418 15.414 29.3285 15.7192 29.3154C15.7392 29.3082 15.8163 29.2795 15.9491 29.1881C16.1477 29.0514 16.3808 28.8345 16.602 28.5539C16.822 28.275 16.9968 27.9755 17.1072 27.7016ZM24.7682 27.1742C24.7641 27.239 24.778 27.4168 24.8928 27.7016C25.0031 27.9755 25.178 28.275 25.3979 28.5539C25.6192 28.8345 25.8522 29.0514 26.0508 29.1881C26.1836 29.2795 26.2608 29.3082 26.2808 29.3154C26.5859 29.3285 26.7591 29.2418 26.8395 29.1755C26.9029 29.1233 27.0323 28.9869 27.0568 28.6029C27.061 28.5382 27.0471 28.3603 26.9323 28.0755C26.8219 27.8016 26.6471 27.5021 26.4272 27.2232C26.2059 26.9426 25.9729 26.7257 25.7743 26.589C25.6414 26.4976 25.5643 26.4689 25.5443 26.4617C25.2392 26.4486 25.066 26.5353 24.9855 26.6016C24.9221 26.6538 24.7927 26.7902 24.7682 27.1742ZM21.6749 11.009C21.6749 10.7192 21.4399 10.4842 21.1501 10.4842C20.8602 10.4842 20.6252 10.7192 20.6252 11.009V12.3211C20.6252 12.611 20.8602 12.8459 21.1501 12.8459C21.4399 12.8459 21.6749 12.611 21.6749 12.3211V11.009ZM21.6749 14.9453C21.6749 14.6554 21.4399 14.4204 21.1501 14.4204C20.8602 14.4204 20.6252 14.6554 20.6252 14.9453V16.2573C20.6252 16.5472 20.8602 16.7822 21.1501 16.7822C21.4399 16.7822 21.6749 16.5472 21.6749 16.2573V14.9453Z"
        fill="black"
        fill-rule="evenodd" />
</svg>
