<svg fill="none" height="24" viewBox="0 0 24 24" width="24" xmlns="http://www.w3.org/2000/svg">
  <path clip-rule="evenodd"
        d="M12.8541 8.96864C14.3446 8.96864 15.5529 7.76037 15.5529 6.26988C15.5529 4.7794 14.3446 3.57113 12.8541 3.57113C11.3636 3.57113 10.1554 4.7794 10.1554 6.26988C10.1554 7.76037 11.3636 8.96864 12.8541 8.96864ZM12.8541 10.5398C15.2123 10.5398 17.124 8.62808 17.124 6.26988C17.124 3.91169 15.2123 2 12.8541 2C10.4959 2 8.58423 3.91169 8.58423 6.26988C8.58423 8.62808 10.4959 10.5398 12.8541 10.5398Z"
        fill="#9E9E9E"
        fill-rule="evenodd" />
  <path clip-rule="evenodd"
        d="M6.59363 15.7029C5.0664 16.9721 4.39262 18.6433 4.23832 19.7543C4.17863 20.184 3.78188 20.484 3.35215 20.4243C2.92242 20.3646 2.62244 19.9678 2.68213 19.5381C2.88365 18.0872 3.72567 16.0435 5.58944 14.4946C7.47741 12.9256 10.3384 11.9261 14.45 12.4624C14.8802 12.5185 15.1835 12.9127 15.1274 13.343C15.0713 13.7732 14.677 14.0764 14.2468 14.0203C10.5018 13.5318 8.09666 14.4538 6.59363 15.7029Z"
        fill="#9E9E9E"
        fill-rule="evenodd" />
  <path clip-rule="evenodd"
        d="M17.3373 14.024C17.7711 14.024 18.1228 14.3758 18.1228 14.8096V21.2144C18.1228 21.6483 17.7711 22 17.3373 22C16.9034 22 16.5517 21.6483 16.5517 21.2144V14.8096C16.5517 14.3758 16.9034 14.024 17.3373 14.024Z"
        fill="#9E9E9E"
        fill-rule="evenodd" />
  <path clip-rule="evenodd"
        d="M13.3493 17.7986C13.3493 17.3647 13.701 17.013 14.1349 17.013H20.5397C20.9736 17.013 21.3253 17.3647 21.3253 17.7986C21.3253 18.2324 20.9736 18.5842 20.5397 18.5842H14.1349C13.701 18.5842 13.3493 18.2325 13.3493 17.7986Z"
        fill="#9E9E9E"
        fill-rule="evenodd" />
</svg>
