<svg fill="none" height="30" viewBox="0 0 18 30" width="18" xmlns="http://www.w3.org/2000/svg">
  <path d="M16.2552 20.3473L13.4405 17.5853L15.7335 15.3383L14.2831 13.9147L7.93389 20.1423L9.38668 21.5658L11.7073 19.2909L14.2082 21.7453C14.293 21.8284 14.3603 21.9275 14.4063 22.0367C14.4522 22.1459 14.4759 22.2632 14.4759 22.3816C14.4759 22.5 14.4522 22.6172 14.4063 22.7265C14.3603 22.8357 14.293 22.9347 14.2082 23.0178L9.962 27.1769C9.70483 27.4276 9.35918 27.5681 8.99919 27.5681C8.6392 27.5681 8.29355 27.4276 8.03638 27.1769L3.84238 23.0611C3.75745 22.9779 3.68991 22.8788 3.64368 22.7695C3.59759 22.6606 3.57385 22.5436 3.57385 22.4254C3.57385 22.3072 3.59759 22.1902 3.64368 22.0813C3.68991 21.9719 3.75745 21.8728 3.84238 21.7896L16.2542 9.61029C16.5251 9.34538 16.7402 9.02942 16.887 8.68084C17.0339 8.33227 17.1095 7.95807 17.1095 7.58008C17.1095 7.2021 17.0339 6.8279 16.887 6.47932C16.7402 6.13075 16.5251 5.81479 16.2542 5.54987L11.7097 1.08952C10.9919 0.391068 10.0281 0 9.02433 0C8.02059 0 7.05672 0.391068 6.33896 1.08952L1.73498 5.60859C1.46639 5.8715 1.25291 6.18488 1.10692 6.53056C0.960929 6.87624 0.885338 7.24733 0.884528 7.62231C0.883719 7.99729 0.957707 8.3687 1.1022 8.715C1.2467 9.0613 1.45883 9.37559 1.72628 9.63965L4.57869 12.4204L2.32577 14.6304L3.77614 16.0539L10.1211 9.82638L8.67068 8.4028L6.30995 10.7196L3.77663 8.26516C3.69301 8.18361 3.62659 8.08627 3.58124 7.97884C3.53589 7.87141 3.51253 7.75605 3.51253 7.63952C3.51253 7.52299 3.53589 7.40763 3.58124 7.3002C3.62659 7.19277 3.69301 7.09543 3.77663 7.01388L8.13597 2.73978C8.37473 2.50787 8.6951 2.37806 9.02868 2.37806C9.36226 2.37806 9.68263 2.50787 9.92139 2.73978L14.2029 6.94265C14.2878 7.02586 14.3553 7.12498 14.4016 7.23429C14.4476 7.34331 14.4714 7.46038 14.4714 7.57864C14.4714 7.6969 14.4476 7.81397 14.4016 7.92298C14.3553 8.03229 14.2878 8.13141 14.2029 8.21463L1.77463 20.3766C1.50292 20.6423 1.28683 20.959 1.13888 21.3084C0.991554 21.6564 0.915658 22.0303 0.915658 22.408C0.915658 22.7858 0.991554 23.1597 1.13888 23.5077C1.28672 23.857 1.50264 24.1737 1.77414 24.4395L6.34718 28.9239C7.05532 29.6137 8.0067 30 8.9975 30C9.98829 30 10.9397 29.6137 11.6478 28.9239L16.2581 24.4072C16.5295 24.1424 16.7451 23.8263 16.8923 23.4775C17.0394 23.1287 17.1152 22.7541 17.1152 22.3758C17.1152 21.9975 17.0394 21.6229 16.8923 21.2741C16.7451 20.9253 16.5295 20.6092 16.2581 20.3444L16.2552 20.3473Z"
        fill="white" />
</svg>
