<svg fill="none" height="50" viewBox="0 0 143 50" width="143" xmlns="http://www.w3.org/2000/svg">
  <rect fill="#FFA440" height="50" rx="5" width="142.8" />
  <path d="M30.2883 30.3473L27.4886 27.5853L29.7694 25.3383L28.3268 23.9147L22.0116 30.1423L23.4566 31.5658L25.7647 29.2909L28.2522 31.7453C28.3366 31.8284 28.4035 31.9275 28.4493 32.0367C28.4949 32.1459 28.5185 32.2632 28.5185 32.3816C28.5185 32.5 28.4949 32.6172 28.4493 32.7265C28.4035 32.8357 28.3366 32.9347 28.2522 33.0178L24.0288 37.1769C23.773 37.4276 23.4292 37.5681 23.0711 37.5681C22.7131 37.5681 22.3693 37.4276 22.1135 37.1769L17.942 33.0611C17.8575 32.9779 17.7903 32.8788 17.7444 32.7695C17.6985 32.6606 17.6749 32.5436 17.6749 32.4254C17.6749 32.3072 17.6985 32.1902 17.7444 32.0813C17.7903 31.9719 17.8575 31.8728 17.942 31.7896L30.2873 19.6103C30.5566 19.3454 30.7707 19.0294 30.9167 18.6808C31.0627 18.3323 31.138 17.9581 31.138 17.5801C31.138 17.2021 31.0627 16.8279 30.9167 16.4793C30.7707 16.1308 30.5566 15.8148 30.2873 15.5499L25.7671 11.0895C25.0532 10.3911 24.0945 10 23.0962 10C22.0978 10 21.1391 10.3911 20.4252 11.0895L15.8459 15.6086C15.5787 15.8715 15.3664 16.1849 15.2212 16.5306C15.076 16.8762 15.0008 17.2473 15 17.6223C14.9992 17.9973 15.0728 18.3687 15.2165 18.715C15.3602 19.0613 15.5712 19.3756 15.8372 19.6397L18.6744 22.4204L16.4335 24.6304L17.8761 26.0539L24.187 19.8264L22.7444 18.4028L20.3963 20.7196L17.8766 18.2652C17.7934 18.1836 17.7274 18.0863 17.6823 17.9788C17.6371 17.8714 17.6139 17.7561 17.6139 17.6395C17.6139 17.523 17.6371 17.4076 17.6823 17.3002C17.7274 17.1928 17.7934 17.0954 17.8766 17.0139L22.2126 12.7398C22.45 12.5079 22.7687 12.3781 23.1005 12.3781C23.4323 12.3781 23.7509 12.5079 23.9884 12.7398L28.2469 16.9426C28.3314 17.0259 28.3986 17.125 28.4446 17.2343C28.4903 17.3433 28.5139 17.4604 28.5139 17.5786C28.5139 17.6969 28.4903 17.814 28.4446 17.923C28.3986 18.0323 28.3314 18.1314 28.2469 18.2146L15.8853 30.3766C15.6151 30.6423 15.4002 30.959 15.253 31.3084C15.1065 31.6564 15.031 32.0303 15.031 32.408C15.031 32.7858 15.1065 33.1597 15.253 33.5077C15.4 33.857 15.6148 34.1737 15.8849 34.4395L20.4334 38.9239C21.1377 39.6137 22.084 40 23.0695 40C24.0549 40 25.0012 39.6137 25.7055 38.9239L30.2911 34.4072C30.561 34.1424 30.7755 33.8263 30.9218 33.4775C31.0683 33.1287 31.1436 32.7541 31.1436 32.3758C31.1436 31.9975 31.0683 31.6229 30.9218 31.2741C30.7755 30.9253 30.561 30.6092 30.2911 30.3444L30.2883 30.3473Z"
        fill="white" />
  <path d="M45.7266 31.6106V29.9936L47.3 29.6966V22.6245L45.6606 22.3603V20.3471H49.712L49.8486 21.7616L49.8721 21.9878C50.1213 21.4493 50.4961 20.9787 50.9652 20.6157C51.4085 20.2954 51.9447 20.1297 52.4914 20.144C52.698 20.1459 52.9043 20.1633 53.1083 20.196C53.2894 20.2251 53.4688 20.2644 53.6454 20.3139L53.33 22.7328L51.8648 22.6481C51.4499 22.6038 51.0324 22.7037 50.6824 22.931C50.358 23.1646 50.0932 23.4714 49.9096 23.8267V29.6981L51.4695 30.0056V31.6087L45.7266 31.6106Z"
        fill="white" />
  <path d="M59.802 31.8272C59.275 31.857 58.7479 31.769 58.259 31.5698C57.7702 31.3705 57.3317 31.0649 56.9755 30.675C56.2969 29.9113 55.9627 28.7182 55.9627 27.1012V22.2755L54.6957 21.9786V20.3471H58.6056V27.1219C58.6056 28.093 58.7609 28.7769 59.0769 29.1682C59.2509 29.369 59.4691 29.5268 59.7143 29.6291C59.9595 29.7314 60.2251 29.7754 60.4901 29.7577C60.995 29.7725 61.4948 29.6556 61.9409 29.4184C62.3338 29.1944 62.6591 28.8688 62.8829 28.4756V22.2755L61.4697 21.9642V20.3471H65.5089V29.6961L66.8375 30.0075V31.6106H63.1916L63.0127 30.0782C62.6824 30.6188 62.2188 31.0652 61.6663 31.3748C61.0943 31.684 60.452 31.8398 59.802 31.8272Z"
        fill="white" />
  <path d="M72.3888 31.8272C71.6319 31.8314 70.8767 31.7524 70.137 31.5913C69.4137 31.4286 68.7072 31.1982 68.0269 30.9031V27.9232H69.9115L70.3072 29.5498C70.6109 29.6815 70.9263 29.7841 71.2492 29.8564C71.5959 29.931 71.9497 29.9673 72.3042 29.9647C72.8629 30.0177 73.4228 29.8779 73.8911 29.5686C74.038 29.453 74.1568 29.3055 74.2385 29.1373C74.3201 28.969 74.3626 28.7844 74.3626 28.5974C74.3626 28.4104 74.3201 28.2258 74.2385 28.0575C74.1568 27.8893 74.038 27.7418 73.8911 27.6262C73.3317 27.2677 72.7021 27.033 72.0446 26.938C70.9643 26.7663 69.9442 26.3271 69.0767 25.6603C68.7672 25.3905 68.5221 25.0549 68.3591 24.678C68.1961 24.3011 68.1195 23.8925 68.1347 23.4821C68.1213 22.888 68.2853 22.3035 68.6059 21.8034C68.9676 21.2726 69.4724 20.8553 70.0615 20.6003C70.8028 20.2721 71.6073 20.1111 72.4177 20.1286C73.1831 20.1178 73.9466 20.2081 74.6883 20.3972C75.2843 20.5444 75.8546 20.7813 76.3795 21.0998L76.4407 23.9614H74.5561L74.2311 22.4695C74.0039 22.3116 73.7525 22.1921 73.4867 22.1157C73.1676 22.0282 72.8376 21.9869 72.5067 21.993C72.0237 21.9652 71.5452 22.0979 71.1454 22.3703C70.9047 22.5403 70.7363 22.7943 70.6736 23.0823C70.6108 23.3704 70.6582 23.6715 70.8064 23.9263C70.9673 24.1381 71.1836 24.3014 71.4314 24.3979C71.8672 24.5895 72.3219 24.7347 72.788 24.831C74.2482 25.1705 75.2939 25.6137 75.9252 26.1608C76.235 26.4292 76.4805 26.7638 76.6435 27.1401C76.8066 27.5163 76.883 27.9244 76.8671 28.3342C76.8798 28.8036 76.7874 29.27 76.5968 29.6991C76.406 30.1281 76.1219 30.5091 75.765 30.8141C75.0252 31.4927 73.8998 31.8304 72.3888 31.8272Z"
        fill="white" />
  <path d="M82.706 31.8084C82.2977 31.8328 81.8888 31.7739 81.5039 31.6354C81.119 31.4968 80.7663 31.2814 80.4672 31.0023C79.9348 30.4647 79.6665 29.5878 79.6665 28.4232V22.3973H77.9762V20.3471H85.3205V22.4026H82.282V28.4232C82.2499 28.7959 82.3536 29.1677 82.5738 29.4699C82.6768 29.5805 82.8027 29.6673 82.9426 29.7243C83.0825 29.7813 83.2332 29.8072 83.384 29.8001C83.6001 29.7976 83.8157 29.7802 84.0294 29.7481C84.2698 29.7106 84.4622 29.6774 84.6064 29.6442L84.8747 31.4831C84.5332 31.583 84.1854 31.6602 83.8337 31.7141C83.4608 31.7744 83.0838 31.8059 82.706 31.8084Z"
        fill="white" />
  <path d="M87.0129 31.6105V29.9935L88.5724 29.6821V22.61L86.9283 22.3602V20.3471H90.9845L91.1209 21.7615V21.9877C91.3718 21.4489 91.7483 20.9783 92.2188 20.6156C92.6608 20.296 93.1952 20.1304 93.7403 20.144C93.9485 20.146 94.1563 20.1634 94.362 20.1959C94.5417 20.2244 94.7195 20.2638 94.8943 20.3139L94.5929 22.737L93.1276 22.6523C92.7127 22.608 92.2952 22.708 91.9452 22.9353C91.6207 23.1688 91.3559 23.4757 91.1724 23.8309V29.6961L92.7319 30.0075V31.6105H87.0129Z"
        fill="white" />
  <path d="M99.4525 31.827C98.4742 31.8915 97.5092 31.5717 96.7626 30.9357C96.4412 30.621 96.191 30.2411 96.0285 29.8216C95.866 29.4021 95.7951 28.9526 95.8206 28.5034C95.8042 27.8277 96.0094 27.1653 96.4048 26.6174C96.8418 26.0449 97.4335 25.6097 98.11 25.3632C98.9793 25.034 99.9033 24.8739 100.833 24.8915H102.547V23.9492C102.561 23.6895 102.521 23.4297 102.429 23.1863C102.337 22.9429 102.196 22.7211 102.015 22.5348C101.805 22.346 101.559 22.2015 101.292 22.11C101.025 22.0184 100.742 21.9817 100.46 22.002C100.111 21.9965 99.7636 22.0442 99.429 22.1435C99.1417 22.2319 98.8712 22.3674 98.6283 22.5444L98.3926 24.0623H96.4658V21.2854C97.0389 20.9125 97.6623 20.6235 98.3172 20.4273C99.0519 20.2061 99.8159 20.0981 100.583 20.1068C101.79 20.0376 102.983 20.3929 103.956 21.1112C104.371 21.4622 104.699 21.9054 104.913 22.4055C105.128 22.9056 105.222 23.4489 105.19 23.9921V29.8846L106.335 30.029V31.6321H102.915C102.845 31.3872 102.784 31.1605 102.723 30.9251C102.665 30.6989 102.623 30.4689 102.596 30.2369C102.221 30.7076 101.759 31.1014 101.235 31.3968C100.689 31.694 100.074 31.8424 99.4525 31.827ZM100.046 29.7999C100.561 29.8031 101.068 29.6749 101.52 29.4274C101.942 29.2124 102.297 28.8865 102.547 28.4847V26.5986H100.804C100.162 26.5575 99.5284 26.7595 99.0284 27.1645C98.8429 27.321 98.6934 27.5158 98.5902 27.7355C98.4869 27.9552 98.4323 28.1947 98.4302 28.4375C98.4191 28.6271 98.4511 28.8168 98.5237 28.9924C98.5964 29.1679 98.7078 29.3247 98.8495 29.451C99.1977 29.71 99.6278 29.8339 100.06 29.7999H100.046Z"
        fill="white" />
  <path d="M112.167 31.827C111.205 31.8509 110.255 31.6005 109.43 31.1052C108.657 30.6208 108.036 29.9278 107.64 29.106C107.204 28.1876 106.988 27.1804 107.008 26.164V25.8011C106.992 24.795 107.206 23.7984 107.633 22.8876C108.024 22.0615 108.641 21.3634 109.413 20.8745C110.237 20.3707 111.188 20.1154 112.153 20.1391C113.015 20.1232 113.871 20.2837 114.669 20.6107C115.322 20.8798 115.918 21.2701 116.426 21.7609V24.3636H114.428L114.044 22.7841C113.833 22.5761 113.581 22.4154 113.304 22.3125C112.994 22.1874 112.663 22.1249 112.329 22.1286C111.8 22.1163 111.282 22.2824 110.859 22.6003C110.446 22.9295 110.131 23.3667 109.95 23.8636C109.728 24.4816 109.621 25.1353 109.635 25.792V26.1554C109.617 26.8358 109.725 27.5137 109.955 28.1545C110.13 28.6429 110.442 29.0703 110.855 29.3851C111.243 29.6606 111.708 29.8059 112.183 29.8C112.714 29.8281 113.237 29.6603 113.653 29.3283C114.046 28.9737 114.308 28.497 114.397 27.975H116.663L116.692 28.0361C116.623 28.7286 116.4 29.3971 116.041 29.993C115.684 30.572 115.171 31.0389 114.562 31.3405C113.813 31.6896 112.993 31.8563 112.167 31.827Z"
        fill="white" />
  <path d="M123.448 31.8271C122.477 31.851 121.519 31.6046 120.679 31.1153C119.896 30.6436 119.263 29.9605 118.852 29.1445C118.404 28.2487 118.182 27.2579 118.202 26.257V25.8185C118.184 24.8063 118.401 23.8039 118.838 22.8905C119.234 22.0707 119.844 21.3735 120.605 20.8726C121.359 20.3812 122.243 20.1253 123.144 20.1372C124.037 20.1085 124.922 20.3203 125.705 20.7503C126.392 21.1603 126.937 21.7699 127.269 22.4978C127.642 23.3517 127.823 24.2772 127.798 25.2088V26.6939H120.914L120.891 26.7459C120.907 27.2891 121.034 27.8232 121.263 28.3158C121.467 28.7598 121.794 29.1361 122.205 29.4001C122.65 29.6752 123.167 29.8129 123.689 29.7962C124.254 29.8022 124.814 29.7179 125.352 29.5464C125.847 29.3835 126.314 29.145 126.737 28.8394L127.554 30.4849C127.047 30.8946 126.474 31.2136 125.858 31.4277C125.086 31.706 124.27 31.8414 123.448 31.8271ZM120.956 24.8637H125.31V24.5952C125.32 24.1527 125.245 23.7125 125.088 23.2986C124.949 22.9508 124.705 22.6546 124.392 22.4502C124.03 22.2302 123.611 22.1219 123.189 22.1388C122.79 22.1313 122.399 22.2556 122.077 22.4925C121.748 22.7375 121.485 23.0618 121.314 23.4353C121.113 23.8713 120.981 24.3358 120.923 24.8122L120.956 24.8637Z"
        fill="white" />
  <path d="M41.4965 31.8084C41.0884 31.8326 40.6797 31.7736 40.2951 31.6351C39.9105 31.4965 39.558 31.2812 39.259 31.0023C38.7267 30.4647 38.4584 29.5878 38.4584 28.4232V22.4026H36.7667V20.3471H44.1109V22.4026H41.0675V28.4232C41.0341 28.7973 41.1396 29.1706 41.3637 29.4719C41.4662 29.5818 41.5913 29.6682 41.7303 29.7252C41.8694 29.7822 42.0191 29.8084 42.1692 29.802C42.3869 29.7996 42.6041 29.7823 42.8193 29.75C43.0598 29.7125 43.2521 29.6793 43.3963 29.6461L43.6647 31.485C43.3214 31.5844 42.9721 31.6616 42.6188 31.716C42.2477 31.7756 41.8724 31.8065 41.4965 31.8084Z"
        fill="white" />
</svg>
