<svg fill="none" height="40" viewBox="0 0 151 40" width="151" xmlns="http://www.w3.org/2000/svg">
  <path d="M20.3843 27.1297L16.6514 23.4471L19.6925 20.4511L17.769 18.5529L9.34875 26.8564L11.2754 28.7544L14.3529 25.7212L17.6697 28.9937C17.7821 29.1045 17.8714 29.2367 17.9324 29.3823C17.9932 29.5279 18.0247 29.6843 18.0247 29.8421C18.0247 30 17.9932 30.1563 17.9324 30.302C17.8714 30.4476 17.7821 30.5796 17.6697 30.6904L12.0384 36.2359C11.6973 36.5701 11.2389 36.7575 10.7615 36.7575C10.2841 36.7575 9.82573 36.5701 9.48468 36.2359L3.92266 30.7481C3.81002 30.6372 3.72046 30.5051 3.65915 30.3593C3.59802 30.2141 3.56654 30.0581 3.56654 29.9005C3.56654 29.7429 3.59802 29.5869 3.65915 29.4417C3.72046 29.2959 3.81002 29.1637 3.92266 29.0528L20.383 12.8137C20.7422 12.4605 21.0275 12.0392 21.2223 11.5745C21.417 11.1097 21.5173 10.6108 21.5173 10.1068C21.5173 9.6028 21.417 9.10387 21.2223 8.63909C21.0275 8.17433 20.7422 7.75305 20.383 7.39983L14.3561 1.45269C13.4042 0.521424 12.126 0 10.7949 0C9.46373 0 8.18547 0.521424 7.23358 1.45269L1.12787 7.47812C0.771664 7.82867 0.488548 8.24651 0.29494 8.70741C0.101331 9.16832 0.00108227 9.66311 8.7149e-06 10.1631C-0.00106484 10.6631 0.0970577 11.1583 0.288685 11.62C0.480313 12.0817 0.761633 12.5008 1.11633 12.8529L4.89913 16.5605L1.91135 19.5072L3.83482 21.4052L12.2493 13.1018L10.3259 11.2037L7.19512 14.2928L3.83547 11.0202C3.72457 10.9115 3.63649 10.7817 3.57634 10.6385C3.5162 10.4952 3.48522 10.3414 3.48522 10.186C3.48522 10.0307 3.5162 9.87684 3.57634 9.7336C3.63649 9.59036 3.72457 9.46057 3.83547 9.35184L9.61675 3.65304C9.93338 3.34383 10.3582 3.17075 10.8006 3.17075C11.243 3.17075 11.6679 3.34383 11.9845 3.65304L17.6626 9.25687C17.7752 9.36781 17.8648 9.49997 17.9261 9.64572C17.9871 9.79108 18.0186 9.94717 18.0186 10.1049C18.0186 10.2625 17.9871 10.4186 17.9261 10.564C17.8648 10.7097 17.7752 10.8419 17.6626 10.9528L1.18044 27.1688C0.820103 27.5231 0.533536 27.9453 0.337325 28.4112C0.141945 28.8752 0.0412932 29.3737 0.0412932 29.8773C0.0412932 30.3811 0.141945 30.8796 0.337325 31.3436C0.533391 31.8093 0.819733 32.2316 1.1798 32.586L7.24447 38.5652C8.1836 39.4849 9.44531 40 10.7593 40C12.0733 40 13.335 39.4849 14.2741 38.5652L20.3881 32.5429C20.748 32.1899 21.0339 31.7684 21.2291 31.3033C21.4244 30.8383 21.5249 30.3388 21.5249 29.8344C21.5249 29.33 21.4244 28.8305 21.2291 28.3655C21.0339 27.9004 20.748 27.4789 20.3881 27.1259L20.3843 27.1297Z"
        fill="black" />
  <path d="M40.9914 27.5252V25.3692L43.0892 24.9732V15.5437L40.9035 15.1914V12.5072H46.3053L46.4874 14.3932L46.5187 14.6948C46.8509 13.9768 47.3508 13.3493 47.9761 12.8653C48.5672 12.4382 49.2823 12.2173 50.0111 12.2364C50.2866 12.2389 50.5616 12.2621 50.8336 12.3057C51.0752 12.3445 51.3143 12.3969 51.5498 12.4629L51.1293 15.6881L49.1757 15.5752C48.6224 15.5161 48.0658 15.6493 47.5991 15.9524C47.1665 16.2638 46.8135 16.6729 46.5688 17.1466V24.9752L48.6486 25.3852V27.5226L40.9914 27.5252Z"
        fill="black" />
  <path d="M59.7587 27.814C59.0559 27.8537 58.3532 27.7364 57.7013 27.4708C57.0496 27.205 56.4649 26.7976 55.9899 26.2777C55.0852 25.2594 54.6396 23.6686 54.6396 21.5126V15.0784L52.9502 14.6825V12.5072H58.1634V21.5402C58.1634 22.835 58.3705 23.7469 58.7917 24.2686C59.0238 24.5364 59.3148 24.7468 59.6417 24.8832C59.9686 25.0196 60.3227 25.0782 60.676 25.0546C61.3492 25.0744 62.0157 24.9185 62.6104 24.6022C63.1343 24.3036 63.568 23.8694 63.8665 23.3452V15.0784L61.9822 14.6633V12.5072H67.3678V24.9725L69.1393 25.3877V27.5252H64.2781L64.0395 25.482C63.5991 26.2028 62.9809 26.798 62.2443 27.2108C61.4816 27.623 60.6253 27.8308 59.7587 27.814Z"
        fill="black" />
  <path d="M76.541 27.814C75.5317 27.8196 74.5248 27.7142 73.5386 27.4994C72.5742 27.2825 71.6322 26.9753 70.7252 26.5818V22.6086H73.2379L73.7655 24.7774C74.1705 24.953 74.5909 25.0898 75.0215 25.1862C75.4838 25.2857 75.9555 25.3341 76.4282 25.3306C77.1731 25.4013 77.9196 25.2149 78.5441 24.8025C78.7399 24.6484 78.8983 24.4517 79.0073 24.2274C79.1161 24.003 79.1727 23.7569 79.1727 23.5076C79.1727 23.2582 79.1161 23.0121 79.0073 22.7877C78.8983 22.5634 78.7399 22.3668 78.5441 22.2126C77.7981 21.7346 76.9587 21.4217 76.0821 21.295C74.6417 21.0661 73.2815 20.4805 72.1248 19.5914C71.7122 19.2317 71.3854 18.7842 71.168 18.2817C70.9507 17.7792 70.8486 17.2344 70.8688 16.6872C70.851 15.895 71.0697 15.1157 71.4971 14.4489C71.9794 13.7412 72.6524 13.1848 73.4379 12.8448C74.4264 12.4072 75.499 12.1925 76.5795 12.2158C77.6 12.2014 78.618 12.3218 79.607 12.574C80.4017 12.7702 81.162 13.0861 81.862 13.5108L81.9435 17.3262H79.4308L78.9974 15.337C78.6945 15.1265 78.3593 14.9672 78.0049 14.8653C77.5794 14.7486 77.1394 14.6936 76.6982 14.7017C76.0542 14.6646 75.4162 14.8416 74.8831 15.2048C74.5621 15.4314 74.3377 15.7701 74.254 16.1541C74.1703 16.5382 74.2335 16.9397 74.4311 17.2794C74.6457 17.5618 74.9341 17.7796 75.2645 17.9082C75.8455 18.1637 76.4518 18.3573 77.0733 18.4857C79.0202 18.9384 80.4145 19.5293 81.2562 20.2588C81.6692 20.6166 81.9965 21.0628 82.214 21.5645C82.4314 22.0661 82.5333 22.6102 82.5121 23.1566C82.529 23.7825 82.4058 24.4044 82.1516 24.9765C81.8973 25.5485 81.5184 26.0565 81.0427 26.4632C80.0561 27.368 78.5556 27.8182 76.541 27.814Z"
        fill="black" />
  <path d="M90.2973 27.7889C89.7529 27.8214 89.2076 27.7429 88.6945 27.5582C88.1813 27.3734 87.711 27.0862 87.3121 26.7141C86.6023 25.9973 86.2446 24.8281 86.2446 23.2753V15.2408H83.9909V12.5072H93.7833V15.2478H89.7319V23.2753C89.6891 23.7722 89.8274 24.268 90.121 24.6709C90.2584 24.8184 90.4262 24.9341 90.6127 25.0101C90.7993 25.0861 91.0002 25.1206 91.2013 25.1112C91.4893 25.1078 91.7768 25.0846 92.0618 25.0418C92.3823 24.9918 92.6388 24.9476 92.8312 24.9033L93.1889 27.3552C92.7335 27.4884 92.2698 27.5913 91.8008 27.6632C91.3036 27.7436 90.801 27.7856 90.2973 27.7889Z"
        fill="black" />
  <path d="M96.0399 27.525V25.369L98.1191 24.9538V15.5244L95.927 15.1913V12.5072H101.335L101.517 14.393V14.6946C101.852 13.9762 102.354 13.3488 102.981 12.8652C103.57 12.439 104.283 12.2182 105.01 12.2364C105.287 12.239 105.564 12.2622 105.839 12.3056C106.078 12.3436 106.315 12.3961 106.548 12.4629L106.146 15.6937L104.193 15.5808C103.64 15.5217 103.083 15.655 102.616 15.9581C102.184 16.2694 101.831 16.6786 101.586 17.1522V24.9725L103.665 25.3877V27.525H96.0399Z"
        fill="black" />
  <path d="M112.626 27.8137C111.321 27.8997 110.035 27.4733 109.039 26.6253C108.611 26.2057 108.277 25.6992 108.061 25.1398C107.844 24.5805 107.749 23.9812 107.783 23.3822C107.761 22.4813 108.035 21.5981 108.562 20.8676C109.145 20.1042 109.934 19.524 110.836 19.1953C111.995 18.7564 113.227 18.5429 114.466 18.5664H116.752V17.31C116.77 16.9637 116.717 16.6173 116.595 16.2928C116.472 15.9682 116.284 15.6725 116.043 15.4241C115.763 15.1724 115.435 14.9797 115.078 14.8577C114.722 14.7356 114.345 14.6866 113.97 14.7137C113.504 14.7064 113.041 14.77 112.595 14.9024C112.212 15.0202 111.851 15.2009 111.527 15.4369L111.213 17.4608H108.644V13.7582C109.408 13.261 110.239 12.8757 111.112 12.6141C112.092 12.3192 113.11 12.1752 114.133 12.1868C115.742 12.0945 117.333 12.5682 118.63 13.526C119.184 13.994 119.621 14.5849 119.907 15.2517C120.193 15.9185 120.319 16.6429 120.276 17.3672V25.2238L121.803 25.4164V27.5538H117.243C117.149 27.2273 117.067 26.925 116.986 26.6112C116.909 26.3096 116.853 26.0029 116.817 25.6936C116.317 26.3212 115.701 26.8462 115.002 27.2401C114.274 27.6364 113.455 27.8342 112.626 27.8137ZM113.417 25.1109C114.104 25.1152 114.78 24.9442 115.383 24.6142C115.945 24.3276 116.418 23.893 116.752 23.3573V20.8425H114.428C113.572 20.7877 112.727 21.057 112.06 21.597C111.813 21.8057 111.614 22.0654 111.476 22.3584C111.338 22.6513 111.266 22.9706 111.263 23.2944C111.248 23.5472 111.291 23.8001 111.388 24.0342C111.484 24.2682 111.633 24.4773 111.822 24.6457C112.286 24.991 112.86 25.1562 113.436 25.1109H113.417Z"
        fill="black" />
  <path d="M129.579 27.8137C128.295 27.8456 127.03 27.5117 125.929 26.8513C124.899 26.2054 124.071 25.2814 123.542 24.1857C122.961 22.9612 122.673 21.6182 122.7 20.263V19.7792C122.678 18.4377 122.964 17.1089 123.534 15.8945C124.055 14.793 124.877 13.8622 125.906 13.2104C127.005 12.5386 128.273 12.1982 129.561 12.2298C130.71 12.2086 131.851 12.4226 132.914 12.8586C133.785 13.2174 134.579 13.7378 135.257 14.3922V17.8625H132.594L132.081 15.7565C131.801 15.4792 131.464 15.2649 131.095 15.1277C130.682 14.9609 130.24 14.8776 129.795 14.8825C129.089 14.8661 128.399 15.0876 127.835 15.5114C127.284 15.9504 126.864 16.5333 126.623 17.1958C126.326 18.0198 126.184 18.8914 126.202 19.767V20.2516C126.178 21.1588 126.323 22.0626 126.629 22.917C126.863 23.5682 127.279 24.1381 127.829 24.5578C128.346 24.9252 128.966 25.1189 129.6 25.111C130.308 25.1485 131.005 24.9248 131.56 24.4821C132.083 24.0093 132.433 23.3737 132.552 22.6777H135.573L135.612 22.7592C135.52 23.6825 135.223 24.5738 134.744 25.3684C134.268 26.1404 133.584 26.7629 132.772 27.165C131.774 27.6305 130.679 27.8528 129.579 27.8137Z"
        fill="black" />
  <path d="M144.62 27.8138C143.325 27.8457 142.048 27.5172 140.927 26.8648C139.884 26.2358 139.04 25.325 138.492 24.237C137.895 23.0426 137.598 21.7216 137.625 20.387V19.8024C137.601 18.4528 137.891 17.1162 138.473 15.8984C139.001 14.8053 139.815 13.8757 140.829 13.2078C141.835 12.5526 143.014 12.2114 144.214 12.2273C145.405 12.189 146.585 12.4714 147.63 13.0448C148.545 13.5914 149.272 14.4042 149.715 15.3748C150.212 16.5133 150.453 17.7473 150.42 18.9894V20.9696H141.242L141.211 21.0389C141.232 21.7632 141.402 22.4753 141.707 23.1321C141.979 23.7241 142.414 24.2258 142.963 24.5778C143.556 24.9446 144.245 25.1282 144.941 25.106C145.694 25.114 146.442 25.0016 147.158 24.7729C147.819 24.5557 148.441 24.2377 149.005 23.8302L150.094 26.0242C149.419 26.5705 148.654 26.9958 147.834 27.2813C146.804 27.6524 145.715 27.8329 144.62 27.8138ZM141.298 18.5293H147.102V18.1713C147.116 17.5813 147.016 16.9944 146.807 16.4425C146.621 15.9788 146.296 15.5838 145.878 15.3113C145.396 15.018 144.837 14.8736 144.274 14.8961C143.742 14.8861 143.221 15.0518 142.793 15.3677C142.353 15.6944 142.003 16.1268 141.775 16.6248C141.507 17.2061 141.331 17.8254 141.254 18.4606L141.298 18.5293Z"
        fill="black" />
  <path d="M35.3512 27.7889C34.8072 27.8212 34.2621 27.7425 33.7494 27.5578C33.2366 27.373 32.7666 27.086 32.368 26.7141C31.6582 25.9973 31.3005 24.8281 31.3005 23.2753V15.2478H29.0449V12.5072H38.8372V15.2478H34.7793V23.2753C34.7347 23.7741 34.8754 24.2718 35.1742 24.6736C35.3109 24.8201 35.4777 24.9353 35.663 25.0113C35.8484 25.0873 36.048 25.1222 36.2482 25.1137C36.5384 25.1105 36.828 25.0874 37.115 25.0444C37.4357 24.9944 37.6921 24.9501 37.8843 24.9058L38.2422 27.3577C37.7844 27.4902 37.3187 27.5932 36.8476 27.6657C36.3528 27.7452 35.8524 27.7864 35.3512 27.7889Z"
        fill="black" />
</svg>
