<svg fill="none" height="30" viewBox="0 0 113 30" width="113" xmlns="http://www.w3.org/2000/svg">
  <path d="M15.2883 20.3473L12.4886 17.5853L14.7694 15.3383L13.3268 13.9147L7.01156 20.1423L8.45656 21.5658L10.7647 19.2909L13.2522 21.7453C13.3366 21.8284 13.4035 21.9275 13.4493 22.0367C13.4949 22.1459 13.5185 22.2632 13.5185 22.3816C13.5185 22.5 13.4949 22.6172 13.4493 22.7265C13.4035 22.8357 13.3366 22.9347 13.2522 23.0178L9.02879 27.1769C8.773 27.4276 8.4292 27.5681 8.07115 27.5681C7.71309 27.5681 7.3693 27.4276 7.11351 27.1769L2.942 23.0611C2.85752 22.9779 2.79034 22.8788 2.74436 22.7695C2.69852 22.6606 2.67491 22.5436 2.67491 22.4254C2.67491 22.3072 2.69852 22.1902 2.74436 22.0813C2.79034 21.9719 2.85752 21.8728 2.942 21.7896L15.2873 9.61029C15.5566 9.34538 15.7707 9.02942 15.9167 8.68084C16.0627 8.33227 16.138 7.95807 16.138 7.58008C16.138 7.2021 16.0627 6.8279 15.9167 6.47932C15.7707 6.13075 15.5566 5.81479 15.2873 5.54987L10.7671 1.08952C10.0532 0.391068 9.09451 0 8.09615 0C7.0978 0 6.1391 0.391068 5.42518 1.08952L0.845901 5.60859C0.578748 5.8715 0.366411 6.18488 0.221205 6.53056C0.075998 6.87624 0.000811705 7.24733 6.53618e-06 7.62231C-0.000798633 7.99729 0.0727933 8.3687 0.216514 8.715C0.360235 9.0613 0.571225 9.37559 0.837246 9.63965L3.67435 12.4204L1.43351 14.6304L2.87611 16.0539L9.18699 9.82638L7.7444 8.4028L5.39634 10.7196L2.8766 8.26516C2.79343 8.18361 2.72736 8.08627 2.68225 7.97884C2.63715 7.87141 2.61392 7.75605 2.61392 7.63952C2.61392 7.52299 2.63715 7.40763 2.68225 7.3002C2.72736 7.19277 2.79343 7.09543 2.8766 7.01388L7.21257 2.73978C7.45004 2.50787 7.76868 2.37806 8.10048 2.37806C8.43228 2.37806 8.75092 2.50787 8.9884 2.73978L13.2469 6.94265C13.3314 7.02586 13.3986 7.12498 13.4446 7.23429C13.4903 7.34331 13.5139 7.46038 13.5139 7.57864C13.5139 7.6969 13.4903 7.81397 13.4446 7.92298C13.3986 8.03229 13.3314 8.13141 13.2469 8.21463L0.885332 20.3766C0.615077 20.6423 0.400152 20.959 0.252994 21.3084C0.106459 21.6564 0.0309699 22.0303 0.0309699 22.408C0.0309699 22.7858 0.106459 23.1597 0.252994 23.5077C0.400043 23.857 0.6148 24.1737 0.884851 24.4395L5.43336 28.9239C6.1377 29.6137 7.08398 30 8.06947 30C9.05494 30 10.0012 29.6137 10.7055 28.9239L15.2911 24.4072C15.561 24.1424 15.7755 23.8263 15.9218 23.4775C16.0683 23.1287 16.1436 22.7541 16.1436 22.3758C16.1436 21.9975 16.0683 21.6229 15.9218 21.2741C15.7755 20.9253 15.561 20.6092 15.2911 20.3444L15.2883 20.3473Z"
        fill="white" />
  <path d="M30.7266 21.6106V19.9936L32.3 19.6966V12.6245L30.6606 12.3603V10.3471H34.712L34.8486 11.7616L34.8721 11.9878C35.1213 11.4493 35.4961 10.9787 35.9652 10.6157C36.4085 10.2954 36.9447 10.1297 37.4914 10.144C37.698 10.1459 37.9043 10.1633 38.1083 10.196C38.2894 10.2251 38.4688 10.2644 38.6454 10.3139L38.33 12.7328L36.8648 12.6481C36.4499 12.6038 36.0324 12.7037 35.6824 12.931C35.358 13.1646 35.0932 13.4714 34.9096 13.8267V19.6981L36.4695 20.0056V21.6087L30.7266 21.6106Z"
        fill="white" />
  <path d="M44.802 21.8272C44.275 21.857 43.7479 21.769 43.259 21.5698C42.7702 21.3705 42.3317 21.0649 41.9755 20.675C41.2969 19.9113 40.9627 18.7182 40.9627 17.1012V12.2755L39.6957 11.9786V10.3471H43.6056V17.1219C43.6056 18.093 43.7609 18.7769 44.0769 19.1682C44.2509 19.369 44.4691 19.5268 44.7143 19.6291C44.9595 19.7314 45.2251 19.7754 45.4901 19.7577C45.995 19.7725 46.4948 19.6556 46.9409 19.4184C47.3338 19.1944 47.6591 18.8688 47.8829 18.4756V12.2755L46.4697 11.9642V10.3471H50.5089V19.6961L51.8375 20.0075V21.6106H48.1916L48.0127 20.0782C47.6824 20.6188 47.2188 21.0652 46.6663 21.3748C46.0943 21.684 45.452 21.8398 44.802 21.8272Z"
        fill="white" />
  <path d="M57.3888 21.8272C56.6319 21.8314 55.8767 21.7524 55.137 21.5913C54.4137 21.4286 53.7072 21.1982 53.0269 20.9031V17.9232H54.9115L55.3072 19.5498C55.6109 19.6815 55.9263 19.7841 56.2492 19.8564C56.5959 19.931 56.9497 19.9673 57.3042 19.9647C57.8629 20.0177 58.4228 19.8779 58.8911 19.5686C59.038 19.453 59.1568 19.3055 59.2385 19.1373C59.3201 18.969 59.3626 18.7844 59.3626 18.5974C59.3626 18.4104 59.3201 18.2258 59.2385 18.0575C59.1568 17.8893 59.038 17.7418 58.8911 17.6262C58.3317 17.2677 57.7021 17.033 57.0446 16.938C55.9643 16.7663 54.9442 16.3271 54.0767 15.6603C53.7672 15.3905 53.5221 15.0549 53.3591 14.678C53.1961 14.3011 53.1195 13.8925 53.1347 13.4821C53.1213 12.888 53.2853 12.3035 53.6059 11.8034C53.9676 11.2726 54.4724 10.8553 55.0615 10.6003C55.8028 10.2721 56.6073 10.1111 57.4177 10.1286C58.1831 10.1178 58.9466 10.2081 59.6883 10.3972C60.2843 10.5444 60.8546 10.7813 61.3795 11.0998L61.4407 13.9614H59.5561L59.2311 12.4695C59.0039 12.3116 58.7525 12.1921 58.4867 12.1157C58.1676 12.0282 57.8376 11.9869 57.5067 11.993C57.0237 11.9652 56.5452 12.0979 56.1454 12.3703C55.9047 12.5403 55.7363 12.7943 55.6736 13.0823C55.6108 13.3704 55.6582 13.6715 55.8064 13.9263C55.9673 14.1381 56.1836 14.3014 56.4314 14.3979C56.8672 14.5895 57.3219 14.7347 57.788 14.831C59.2482 15.1705 60.2939 15.6137 60.9252 16.1608C61.235 16.4292 61.4805 16.7638 61.6435 17.1401C61.8066 17.5163 61.883 17.9244 61.8671 18.3342C61.8798 18.8036 61.7874 19.27 61.5968 19.6991C61.406 20.1281 61.1219 20.5091 60.765 20.8141C60.0252 21.4927 58.8998 21.8304 57.3888 21.8272Z"
        fill="white" />
  <path d="M67.706 21.8084C67.2977 21.8328 66.8888 21.7739 66.5039 21.6354C66.119 21.4968 65.7663 21.2814 65.4672 21.0023C64.9348 20.4647 64.6665 19.5878 64.6665 18.4232V12.3973H62.9762V10.3471H70.3205V12.4026H67.282V18.4232C67.2499 18.7959 67.3536 19.1677 67.5738 19.4699C67.6768 19.5805 67.8027 19.6673 67.9426 19.7243C68.0825 19.7813 68.2332 19.8072 68.384 19.8001C68.6001 19.7976 68.8157 19.7802 69.0294 19.7481C69.2698 19.7106 69.4622 19.6774 69.6064 19.6442L69.8747 21.4831C69.5332 21.583 69.1854 21.6602 68.8337 21.7141C68.4608 21.7744 68.0838 21.8059 67.706 21.8084Z"
        fill="white" />
  <path d="M72.0129 21.6105V19.9935L73.5724 19.6821V12.61L71.9283 12.3602V10.3471H75.9845L76.1209 11.7615V11.9877C76.3718 11.4489 76.7483 10.9783 77.2188 10.6156C77.6608 10.296 78.1952 10.1304 78.7403 10.144C78.9485 10.146 79.1563 10.1634 79.362 10.1959C79.5417 10.2244 79.7195 10.2638 79.8943 10.3139L79.5929 12.737L78.1276 12.6523C77.7127 12.608 77.2952 12.708 76.9452 12.9353C76.6207 13.1688 76.3559 13.4757 76.1724 13.8309V19.6961L77.7319 20.0075V21.6105H72.0129Z"
        fill="white" />
  <path d="M84.4525 21.827C83.4742 21.8915 82.5092 21.5717 81.7626 20.9357C81.4412 20.621 81.191 20.2411 81.0285 19.8216C80.866 19.4021 80.7951 18.9526 80.8206 18.5034C80.8042 17.8277 81.0094 17.1653 81.4048 16.6174C81.8418 16.0449 82.4335 15.6097 83.11 15.3632C83.9793 15.034 84.9033 14.8739 85.8326 14.8915H87.5474V13.9492C87.5609 13.6895 87.5205 13.4297 87.429 13.1863C87.3374 12.9429 87.1964 12.7211 87.015 12.5348C86.805 12.346 86.559 12.2015 86.2919 12.11C86.0249 12.0184 85.742 11.9817 85.4604 12.002C85.1114 11.9965 84.7636 12.0442 84.429 12.1435C84.1417 12.2319 83.8712 12.3674 83.6283 12.5444L83.3926 14.0623H81.4658V11.2854C82.0389 10.9125 82.6623 10.6235 83.3172 10.4273C84.0519 10.2061 84.8159 10.0981 85.583 10.1068C86.7899 10.0376 87.983 10.3929 88.9558 11.1112C89.3713 11.4622 89.6991 11.9054 89.9134 12.4055C90.1278 12.9056 90.2225 13.4489 90.1902 13.9921V19.8846L91.3352 20.029V21.6321H87.9152C87.8446 21.3872 87.7835 21.1605 87.7229 20.9251C87.6651 20.6989 87.6227 20.4689 87.596 20.2369C87.2209 20.7076 86.7587 21.1014 86.2346 21.3968C85.6885 21.694 85.0739 21.8424 84.4525 21.827ZM85.0459 19.7999C85.5609 19.8031 86.0683 19.6749 86.5202 19.4274C86.9418 19.2124 87.2969 18.8865 87.5474 18.4847V16.5986H85.8042C85.1623 16.5575 84.5284 16.7595 84.0284 17.1645C83.8429 17.321 83.6934 17.5158 83.5902 17.7355C83.4869 17.9552 83.4323 18.1947 83.4302 18.4375C83.4191 18.6271 83.4511 18.8168 83.5237 18.9924C83.5964 19.1679 83.7078 19.3247 83.8495 19.451C84.1977 19.71 84.6278 19.8339 85.0604 19.7999H85.0459Z"
        fill="white" />
  <path d="M97.1669 21.827C96.2046 21.8509 95.2554 21.6005 94.4299 21.1052C93.657 20.6208 93.0364 19.9278 92.6396 19.106C92.2041 18.1876 91.988 17.1804 92.0082 16.164V15.8011C91.9919 14.795 92.2057 13.7984 92.6333 12.8876C93.0241 12.0615 93.6411 11.3634 94.4125 10.8745C95.2365 10.3707 96.1882 10.1154 97.1535 10.1391C98.0153 10.1232 98.8712 10.2837 99.6689 10.6107C100.322 10.8798 100.918 11.2701 101.426 11.7609V14.3636H99.4285L99.0438 12.7841C98.8335 12.5761 98.5814 12.4154 98.3042 12.3125C97.9945 12.1874 97.663 12.1249 97.329 12.1286C96.8001 12.1163 96.2825 12.2824 95.8594 12.6003C95.4459 12.9295 95.1312 13.3667 94.9502 13.8636C94.7277 14.4816 94.6208 15.1353 94.6347 15.792V16.1554C94.6169 16.8358 94.7255 17.5137 94.955 18.1545C95.13 18.6429 95.4425 19.0703 95.8546 19.3851C96.2425 19.6606 96.7077 19.8059 97.1833 19.8C97.7143 19.8281 98.2372 19.6603 98.6528 19.3283C99.0457 18.9737 99.308 18.497 99.3972 17.975H101.663L101.692 18.0361C101.623 18.7286 101.4 19.3971 101.041 19.993C100.684 20.572 100.171 21.0389 99.5622 21.3405C98.8133 21.6896 97.9926 21.8563 97.1669 21.827Z"
        fill="white" />
  <path d="M108.448 21.8271C107.477 21.851 106.519 21.6046 105.679 21.1153C104.896 20.6436 104.263 19.9605 103.852 19.1445C103.404 18.2487 103.182 17.2579 103.202 16.257V15.8185C103.184 14.8063 103.401 13.8039 103.838 12.8905C104.234 12.0707 104.844 11.3735 105.605 10.8726C106.359 10.3812 107.243 10.1253 108.144 10.1372C109.037 10.1085 109.922 10.3203 110.705 10.7503C111.392 11.1603 111.937 11.7699 112.269 12.4978C112.642 13.3517 112.823 14.2772 112.798 15.2088V16.6939H105.914L105.891 16.7459C105.907 17.2891 106.034 17.8232 106.263 18.3158C106.467 18.7598 106.794 19.1361 107.205 19.4001C107.65 19.6752 108.167 19.8129 108.689 19.7962C109.254 19.8022 109.814 19.7179 110.352 19.5464C110.847 19.3835 111.314 19.145 111.737 18.8394L112.554 20.4849C112.047 20.8946 111.474 21.2136 110.858 21.4277C110.086 21.706 109.27 21.8414 108.448 21.8271ZM105.956 14.8637H110.31V14.5952C110.32 14.1527 110.245 13.7125 110.088 13.2986C109.949 12.9508 109.705 12.6546 109.392 12.4502C109.03 12.2302 108.611 12.1219 108.189 12.1388C107.79 12.1313 107.399 12.2556 107.077 12.4925C106.748 12.7375 106.485 13.0618 106.314 13.4353C106.113 13.8713 105.981 14.3358 105.923 14.8122L105.956 14.8637Z"
        fill="white" />
  <path d="M26.4965 21.8084C26.0884 21.8326 25.6797 21.7736 25.2951 21.6351C24.9105 21.4965 24.558 21.2812 24.259 21.0023C23.7267 20.4647 23.4584 19.5878 23.4584 18.4232V12.4026H21.7667V10.3471H29.1109V12.4026H26.0675V18.4232C26.0341 18.7973 26.1396 19.1706 26.3637 19.4719C26.4662 19.5818 26.5913 19.6682 26.7303 19.7252C26.8694 19.7822 27.0191 19.8084 27.1692 19.802C27.3869 19.7996 27.6041 19.7823 27.8193 19.75C28.0598 19.7125 28.2521 19.6793 28.3963 19.6461L28.6647 21.485C28.3214 21.5844 27.9721 21.6616 27.6188 21.716C27.2477 21.7756 26.8724 21.8065 26.4965 21.8084Z"
        fill="white" />
</svg>
