<svg fill="none" height="50" viewBox="0 0 50 50" width="50" xmlns="http://www.w3.org/2000/svg">
  <rect fill="#FFA440" height="50" rx="5" width="50" />
  <path d="M32.2552 30.3473L29.4405 27.5853L31.7335 25.3383L30.2831 23.9147L23.9339 30.1423L25.3867 31.5658L27.7073 29.2909L30.2082 31.7453C30.293 31.8284 30.3603 31.9275 30.4063 32.0367C30.4522 32.1459 30.4759 32.2632 30.4759 32.3816C30.4759 32.5 30.4522 32.6172 30.4063 32.7265C30.3603 32.8357 30.293 32.9347 30.2082 33.0178L25.962 37.1769C25.7048 37.4276 25.3592 37.5681 24.9992 37.5681C24.6392 37.5681 24.2936 37.4276 24.0364 37.1769L19.8424 33.0611C19.7574 32.9779 19.6899 32.8788 19.6437 32.7695C19.5976 32.6606 19.5739 32.5436 19.5739 32.4254C19.5739 32.3072 19.5976 32.1902 19.6437 32.0813C19.6899 31.9719 19.7574 31.8728 19.8424 31.7896L32.2542 19.6103C32.5251 19.3454 32.7402 19.0294 32.887 18.6808C33.0339 18.3323 33.1095 17.9581 33.1095 17.5801C33.1095 17.2021 33.0339 16.8279 32.887 16.4793C32.7402 16.1307 32.5251 15.8148 32.2542 15.5499L27.7097 11.0895C26.9919 10.3911 26.0281 10 25.0243 10C24.0206 10 23.0567 10.3911 22.339 11.0895L17.735 15.6086C17.4664 15.8715 17.2529 16.1849 17.1069 16.5306C16.9609 16.8762 16.8853 17.2473 16.8845 17.6223C16.8837 17.9973 16.9577 18.3687 17.1022 18.715C17.2467 19.0613 17.4588 19.3756 17.7263 19.6396L20.5787 22.4204L18.3258 24.6304L19.7761 26.0539L26.1211 19.8264L24.6707 18.4028L22.31 20.7196L19.7766 18.2652C19.693 18.1836 19.6266 18.0863 19.5812 17.9788C19.5359 17.8714 19.5125 17.756 19.5125 17.6395C19.5125 17.523 19.5359 17.4076 19.5812 17.3002C19.6266 17.1928 19.693 17.0954 19.7766 17.0139L24.136 12.7398C24.3747 12.5079 24.6951 12.3781 25.0287 12.3781C25.3623 12.3781 25.6826 12.5079 25.9214 12.7398L30.2029 16.9426C30.2878 17.0259 30.3553 17.125 30.4016 17.2343C30.4476 17.3433 30.4714 17.4604 30.4714 17.5786C30.4714 17.6969 30.4476 17.814 30.4016 17.923C30.3553 18.0323 30.2878 18.1314 30.2029 18.2146L17.7746 30.3766C17.5029 30.6423 17.2868 30.959 17.1389 31.3084C16.9916 31.6564 16.9157 32.0303 16.9157 32.408C16.9157 32.7858 16.9916 33.1597 17.1389 33.5077C17.2867 33.857 17.5026 34.1737 17.7741 34.4395L22.3472 38.9239C23.0553 39.6137 24.0067 40 24.9975 40C25.9883 40 26.9397 39.6137 27.6478 38.9239L32.2581 34.4072C32.5295 34.1424 32.7451 33.8263 32.8923 33.4775C33.0394 33.1287 33.1152 32.7541 33.1152 32.3758C33.1152 31.9975 33.0394 31.6229 32.8923 31.2741C32.7451 30.9253 32.5295 30.6092 32.2581 30.3444L32.2552 30.3473Z"
        fill="white" />
</svg>
